solid OpenSCAD_Model
  facet normal -1 0 0
    outer loop
      vertex 50 -7.5 0
      vertex 50 -7.5 5
      vertex 50 7.5 0
    endloop
  endfacet
  facet normal -1 0 0
    outer loop
      vertex 50 7.5 0
      vertex 50 -7.5 5
      vertex 50 7.5 5
    endloop
  endfacet
  facet normal 0 -1 0
    outer loop
      vertex 50 -7.5 5
      vertex 50 -7.5 0
      vertex 55 -7.5 0
    endloop
  endfacet
  facet normal 0 -1 0
    outer loop
      vertex 55 -7.5 5
      vertex 50 -7.5 5
      vertex 55 -7.5 0
    endloop
  endfacet
  facet normal 0 0 -1
    outer loop
      vertex 50 -7.5 0
      vertex 50 7.5 0
      vertex 55 -7.5 0
    endloop
  endfacet
  facet normal 0 0 -1
    outer loop
      vertex 55 2.5 0
      vertex 50 7.5 0
      vertex 55 7.5 0
    endloop
  endfacet
  facet normal 0 0 -1
    outer loop
      vertex 55 -7.5 0
      vertex 50 7.5 0
      vertex 55 -2.5 0
    endloop
  endfacet
  facet normal 0 0 -1
    outer loop
      vertex 55 2.5 0
      vertex 65 2.5 0
      vertex 55 -2.5 0
    endloop
  endfacet
  facet normal 0 0 -1
    outer loop
      vertex 55 2.5 0
      vertex 55 -2.5 0
      vertex 50 7.5 0
    endloop
  endfacet
  facet normal 0 0 -1
    outer loop
      vertex 55 -2.5 0
      vertex 65 2.5 0
      vertex 65 -2.5 0
    endloop
  endfacet
  facet normal 0 1 0
    outer loop
      vertex 50 7.5 0
      vertex 50 7.5 5
      vertex 55 7.5 0
    endloop
  endfacet
  facet normal 0 1 0
    outer loop
      vertex 55 7.5 0
      vertex 50 7.5 5
      vertex 55 7.5 5
    endloop
  endfacet
  facet normal 0 0 1
    outer loop
      vertex 50 7.5 5
      vertex 50 -7.5 5
      vertex 55 -7.5 5
    endloop
  endfacet
  facet normal 0 0 1
    outer loop
      vertex 55 2.5 5
      vertex 50 7.5 5
      vertex 55 -2.5 5
    endloop
  endfacet
  facet normal 0 0 1
    outer loop
      vertex 55 -2.5 5
      vertex 50 7.5 5
      vertex 55 -7.5 5
    endloop
  endfacet
  facet normal 0 0 1
    outer loop
      vertex 55 2.5 5
      vertex 55 7.5 5
      vertex 50 7.5 5
    endloop
  endfacet
  facet normal 0 0 1
    outer loop
      vertex 65 -2.5 5
      vertex 55 2.5 5
      vertex 55 -2.5 5
    endloop
  endfacet
  facet normal 0 0 1
    outer loop
      vertex 65 2.5 5
      vertex 55 2.5 5
      vertex 65 -2.5 5
    endloop
  endfacet
  facet normal 1 0 0
    outer loop
      vertex 55 -7.5 5
      vertex 55 -7.5 0
      vertex 55 -2.5 0
    endloop
  endfacet
  facet normal 1 0 0
    outer loop
      vertex 55 -2.5 5
      vertex 55 -7.5 5
      vertex 55 -2.5 0
    endloop
  endfacet
  facet normal 0 -1 0
    outer loop
      vertex 55 -2.5 5
      vertex 55 -2.5 0
      vertex 65 -2.5 0
    endloop
  endfacet
  facet normal 0 -1 0
    outer loop
      vertex 65 -2.5 5
      vertex 55 -2.5 5
      vertex 65 -2.5 0
    endloop
  endfacet
  facet normal 1 0 0
    outer loop
      vertex 65 -2.5 5
      vertex 65 -2.5 0
      vertex 65 2.5 0
    endloop
  endfacet
  facet normal 1 0 0
    outer loop
      vertex 65 2.5 5
      vertex 65 -2.5 5
      vertex 65 2.5 0
    endloop
  endfacet
  facet normal 0 1 0
    outer loop
      vertex 55 2.5 0
      vertex 55 2.5 5
      vertex 65 2.5 0
    endloop
  endfacet
  facet normal 0 1 0
    outer loop
      vertex 65 2.5 0
      vertex 55 2.5 5
      vertex 65 2.5 5
    endloop
  endfacet
  facet normal 1 0 0
    outer loop
      vertex 55 2.5 5
      vertex 55 2.5 0
      vertex 55 7.5 0
    endloop
  endfacet
  facet normal 1 0 0
    outer loop
      vertex 55 7.5 5
      vertex 55 2.5 5
      vertex 55 7.5 0
    endloop
  endfacet
  facet normal -1 0 0
    outer loop
      vertex -1 -10 0
      vertex -1 -10 7
      vertex -1 10 0
    endloop
  endfacet
  facet normal -1 0 0
    outer loop
      vertex -1 10 0
      vertex -1 -10 7
      vertex -1 10 7
    endloop
  endfacet
  facet normal 0 -1 0
    outer loop
      vertex -1 -10 7
      vertex -1 -10 0
      vertex 9 -10 0
    endloop
  endfacet
  facet normal 0 -1 0
    outer loop
      vertex 9 -10 7
      vertex -1 -10 7
      vertex 9 -10 0
    endloop
  endfacet
  facet normal 0 0 -1
    outer loop
      vertex -1 -10 0
      vertex -1 10 0
      vertex 9 -10 0
    endloop
  endfacet
  facet normal 0 0 -1
    outer loop
      vertex 9 -10 0
      vertex -1 10 0
      vertex 9 10 0
    endloop
  endfacet
  facet normal 0 1 0
    outer loop
      vertex -1 10 0
      vertex -1 10 7
      vertex 9 10 0
    endloop
  endfacet
  facet normal 0 1 0
    outer loop
      vertex 9 10 0
      vertex -1 10 7
      vertex 9 10 7
    endloop
  endfacet
  facet normal 0 0 1
    outer loop
      vertex 5.2 -7.6 7
      vertex -1 -10 7
      vertex 9 -10 7
    endloop
  endfacet
  facet normal 0 0 1
    outer loop
      vertex 5.2 2.6 7
      vertex 9 2.6 7
      vertex 5.2 7.6 7
    endloop
  endfacet
  facet normal 0 0 1
    outer loop
      vertex 5.2 -7.6 7
      vertex 0 -7.6 7
      vertex -1 -10 7
    endloop
  endfacet
  facet normal 0 0 1
    outer loop
      vertex 5.2 -2.6 7
      vertex 5.2 -7.6 7
      vertex 9 -10 7
    endloop
  endfacet
  facet normal 0 0 1
    outer loop
      vertex -1 10 7
      vertex -1 -10 7
      vertex 0 -7.6 7
    endloop
  endfacet
  facet normal 0 0 1
    outer loop
      vertex -1 10 7
      vertex 0 -7.6 7
      vertex 0 7.6 7
    endloop
  endfacet
  facet normal 0 0 1
    outer loop
      vertex 9 10 7
      vertex -1 10 7
      vertex 5.2 7.6 7
    endloop
  endfacet
  facet normal 0 0 1
    outer loop
      vertex 9 10 7
      vertex 5.2 7.6 7
      vertex 9 2.6 7
    endloop
  endfacet
  facet normal 0 0 1
    outer loop
      vertex 9 -2.6 7
      vertex 5.2 -2.6 7
      vertex 9 -10 7
    endloop
  endfacet
  facet normal 0 0 1
    outer loop
      vertex 0 7.6 7
      vertex 5.2 7.6 7
      vertex -1 10 7
    endloop
  endfacet
  facet normal 1 0 0
    outer loop
      vertex 9 2.6 2.5
      vertex 9 -10 0
      vertex 9 10 0
    endloop
  endfacet
  facet normal 1 0 0
    outer loop
      vertex 9 -2.6 2.5
      vertex 9 -2.6 7
      vertex 9 -10 7
    endloop
  endfacet
  facet normal 1 0 0
    outer loop
      vertex 9 10 7
      vertex 9 2.6 7
      vertex 9 10 0
    endloop
  endfacet
  facet normal 1 0 0
    outer loop
      vertex 9 -2.6 2.5
      vertex 9 -10 0
      vertex 9 2.6 2.5
    endloop
  endfacet
  facet normal 1 0 0
    outer loop
      vertex 9 -10 7
      vertex 9 -10 0
      vertex 9 -2.6 2.5
    endloop
  endfacet
  facet normal 1 0 0
    outer loop
      vertex 9 2.6 7
      vertex 9 2.6 2.5
      vertex 9 10 0
    endloop
  endfacet
  facet normal 0 -1 0
    outer loop
      vertex 9 2.6 2.5
      vertex 9 2.6 7
      vertex 5.2 2.6 7
    endloop
  endfacet
  facet normal 0 -1 0
    outer loop
      vertex 5.2 2.6 2.5
      vertex 9 2.6 2.5
      vertex 5.2 2.6 7
    endloop
  endfacet
  facet normal -1 0 0
    outer loop
      vertex 5.2 7.6 7
      vertex 5.2 7.6 2.5
      vertex 5.2 2.6 7
    endloop
  endfacet
  facet normal -1 0 0
    outer loop
      vertex 5.2 2.6 7
      vertex 5.2 7.6 2.5
      vertex 5.2 2.6 2.5
    endloop
  endfacet
  facet normal 0 -1 0
    outer loop
      vertex 5.2 7.6 2.5
      vertex 5.2 7.6 7
      vertex 0 7.6 7
    endloop
  endfacet
  facet normal 0 -1 0
    outer loop
      vertex 0 7.6 2.5
      vertex 5.2 7.6 2.5
      vertex 0 7.6 7
    endloop
  endfacet
  facet normal 1 0 0
    outer loop
      vertex 0 7.6 2.5
      vertex 0 7.6 7
      vertex 0 -7.6 7
    endloop
  endfacet
  facet normal 1 0 0
    outer loop
      vertex 0 -7.6 2.5
      vertex 0 7.6 2.5
      vertex 0 -7.6 7
    endloop
  endfacet
  facet normal 0 1 0
    outer loop
      vertex 5.2 -7.6 7
      vertex 5.2 -7.6 2.5
      vertex 0 -7.6 7
    endloop
  endfacet
  facet normal 0 1 0
    outer loop
      vertex 0 -7.6 7
      vertex 5.2 -7.6 2.5
      vertex 0 -7.6 2.5
    endloop
  endfacet
  facet normal -1 0 0
    outer loop
      vertex 5.2 -2.6 7
      vertex 5.2 -2.6 2.5
      vertex 5.2 -7.6 7
    endloop
  endfacet
  facet normal -1 0 0
    outer loop
      vertex 5.2 -7.6 7
      vertex 5.2 -2.6 2.5
      vertex 5.2 -7.6 2.5
    endloop
  endfacet
  facet normal 0 1 0
    outer loop
      vertex 9 -2.6 7
      vertex 9 -2.6 2.5
      vertex 5.2 -2.6 7
    endloop
  endfacet
  facet normal 0 1 0
    outer loop
      vertex 5.2 -2.6 7
      vertex 9 -2.6 2.5
      vertex 5.2 -2.6 2.5
    endloop
  endfacet
  facet normal 0 0 1
    outer loop
      vertex 9 2.6 2.5
      vertex 5.2 -2.6 2.5
      vertex 9 -2.6 2.5
    endloop
  endfacet
  facet normal 0 0 1
    outer loop
      vertex 5.2 2.6 2.5
      vertex 5.2 -2.6 2.5
      vertex 9 2.6 2.5
    endloop
  endfacet
  facet normal 0 0 1
    outer loop
      vertex 5.2 -7.6 2.5
      vertex 5.2 -2.6 2.5
      vertex 0 7.6 2.5
    endloop
  endfacet
  facet normal 0 0 1
    outer loop
      vertex 0 7.6 2.5
      vertex 5.2 -2.6 2.5
      vertex 5.2 2.6 2.5
    endloop
  endfacet
  facet normal 0 0 1
    outer loop
      vertex 0 7.6 2.5
      vertex 5.2 2.6 2.5
      vertex 5.2 7.6 2.5
    endloop
  endfacet
  facet normal 0 0 1
    outer loop
      vertex 0 -7.6 2.5
      vertex 5.2 -7.6 2.5
      vertex 0 7.6 2.5
    endloop
  endfacet
endsolid OpenSCAD_Model
