solid OpenSCAD_Model
  facet normal -1 0 0
    outer loop
      vertex 0 0 0
      vertex 0 0 10
      vertex 0 12 0
    endloop
  endfacet
  facet normal -1 0 0
    outer loop
      vertex 0 12 0
      vertex 0 0 10
      vertex 0 12 10
    endloop
  endfacet
  facet normal 0 -1 0
    outer loop
      vertex 0 0 10
      vertex 0 0 0
      vertex 18.5 0 0
    endloop
  endfacet
  facet normal 0 -1 0
    outer loop
      vertex 18.5 0 10
      vertex 0 0 10
      vertex 18.5 0 0
    endloop
  endfacet
  facet normal 0 0 -1
    outer loop
      vertex 0 0 0
      vertex 0 12 0
      vertex 18.5 0 0
    endloop
  endfacet
  facet normal 0 0 -1
    outer loop
      vertex 18.5 0 0
      vertex 0 12 0
      vertex 18.5 12 0
    endloop
  endfacet
  facet normal 0 1 0
    outer loop
      vertex 0 12 0
      vertex 0 12 10
      vertex 6.25 12 2
    endloop
  endfacet
  facet normal 0 1 0
    outer loop
      vertex 0 12 0
      vertex 6.25 12 2
      vertex 18.5 12 0
    endloop
  endfacet
  facet normal 0 1 0
    outer loop
      vertex 12.25 12 10
      vertex 18.5 12 0
      vertex 12.25 12 2
    endloop
  endfacet
  facet normal 0 1 0
    outer loop
      vertex 6.25 12 2
      vertex 12.25 12 2
      vertex 18.5 12 0
    endloop
  endfacet
  facet normal 0 1 0
    outer loop
      vertex 18.5 12 0
      vertex 12.25 12 10
      vertex 18.5 12 10
    endloop
  endfacet
  facet normal 0 1 0
    outer loop
      vertex 6.25 12 2
      vertex 0 12 10
      vertex 6.25 12 10
    endloop
  endfacet
  facet normal 0 0 1
    outer loop
      vertex 1 2.2 10
      vertex 0 0 10
      vertex 18.5 0 10
    endloop
  endfacet
  facet normal 0 0 1
    outer loop
      vertex 18.5 12 10
      vertex 17.5 8.2 10
      vertex 18.5 0 10
    endloop
  endfacet
  facet normal 0 0 1
    outer loop
      vertex 18.5 12 10
      vertex 12.25 12 10
      vertex 17.5 8.2 10
    endloop
  endfacet
  facet normal 0 0 1
    outer loop
      vertex 17.5 8.2 10
      vertex 17.5 2.2 10
      vertex 18.5 0 10
    endloop
  endfacet
  facet normal 0 0 1
    outer loop
      vertex 1 8.2 10
      vertex 6.25 8.2 10
      vertex 0 12 10
    endloop
  endfacet
  facet normal 0 0 1
    outer loop
      vertex 0 12 10
      vertex 0 0 10
      vertex 1 2.2 10
    endloop
  endfacet
  facet normal 0 0 1
    outer loop
      vertex 6.25 8.2 10
      vertex 6.25 12 10
      vertex 0 12 10
    endloop
  endfacet
  facet normal 0 0 1
    outer loop
      vertex 0 12 10
      vertex 1 2.2 10
      vertex 1 8.2 10
    endloop
  endfacet
  facet normal 0 0 1
    outer loop
      vertex 12.25 8.2 10
      vertex 17.5 8.2 10
      vertex 12.25 12 10
    endloop
  endfacet
  facet normal 0 0 1
    outer loop
      vertex 17.5 2.2 10
      vertex 1 2.2 10
      vertex 18.5 0 10
    endloop
  endfacet
  facet normal 1 0 0
    outer loop
      vertex 18.5 0 10
      vertex 18.5 0 0
      vertex 18.5 12 0
    endloop
  endfacet
  facet normal 1 0 0
    outer loop
      vertex 18.5 12 10
      vertex 18.5 0 10
      vertex 18.5 12 0
    endloop
  endfacet
  facet normal -1 0 0
    outer loop
      vertex 12.25 12 10
      vertex 12.25 12 2
      vertex 12.25 8.2 10
    endloop
  endfacet
  facet normal -1 0 0
    outer loop
      vertex 12.25 8.2 10
      vertex 12.25 12 2
      vertex 12.25 8.2 2
    endloop
  endfacet
  facet normal 0 0 1
    outer loop
      vertex 6.25 8.2 2
      vertex 1 8.2 2
      vertex 17.5 2.2 2
    endloop
  endfacet
  facet normal 0 0 1
    outer loop
      vertex 17.5 2.2 2
      vertex 17.5 8.2 2
      vertex 12.25 8.2 2
    endloop
  endfacet
  facet normal 0 0 1
    outer loop
      vertex 6.25 12 2
      vertex 17.5 2.2 2
      vertex 12.25 8.2 2
    endloop
  endfacet
  facet normal 0 0 1
    outer loop
      vertex 12.25 12 2
      vertex 6.25 12 2
      vertex 12.25 8.2 2
    endloop
  endfacet
  facet normal 0 0 1
    outer loop
      vertex 6.25 12 2
      vertex 6.25 8.2 2
      vertex 17.5 2.2 2
    endloop
  endfacet
  facet normal 0 0 1
    outer loop
      vertex 1 8.2 2
      vertex 1 2.2 2
      vertex 17.5 2.2 2
    endloop
  endfacet
  facet normal 1 0 0
    outer loop
      vertex 6.25 12 2
      vertex 6.25 12 10
      vertex 6.25 8.2 10
    endloop
  endfacet
  facet normal 1 0 0
    outer loop
      vertex 6.25 8.2 2
      vertex 6.25 12 2
      vertex 6.25 8.2 10
    endloop
  endfacet
  facet normal 0 -1 0
    outer loop
      vertex 6.25 8.2 2
      vertex 6.25 8.2 10
      vertex 1 8.2 10
    endloop
  endfacet
  facet normal 0 -1 0
    outer loop
      vertex 1 8.2 2
      vertex 6.25 8.2 2
      vertex 1 8.2 10
    endloop
  endfacet
  facet normal 1 0 0
    outer loop
      vertex 1 8.2 2
      vertex 1 8.2 10
      vertex 1 2.2 10
    endloop
  endfacet
  facet normal 1 0 0
    outer loop
      vertex 1 2.2 2
      vertex 1 8.2 2
      vertex 1 2.2 10
    endloop
  endfacet
  facet normal 0 1 0
    outer loop
      vertex 17.5 2.2 10
      vertex 17.5 2.2 2
      vertex 1 2.2 10
    endloop
  endfacet
  facet normal 0 1 0
    outer loop
      vertex 1 2.2 10
      vertex 17.5 2.2 2
      vertex 1 2.2 2
    endloop
  endfacet
  facet normal -1 0 0
    outer loop
      vertex 17.5 8.2 10
      vertex 17.5 8.2 2
      vertex 17.5 2.2 10
    endloop
  endfacet
  facet normal -1 0 0
    outer loop
      vertex 17.5 2.2 10
      vertex 17.5 8.2 2
      vertex 17.5 2.2 2
    endloop
  endfacet
  facet normal 0 -1 0
    outer loop
      vertex 17.5 8.2 2
      vertex 17.5 8.2 10
      vertex 12.25 8.2 10
    endloop
  endfacet
  facet normal 0 -1 0
    outer loop
      vertex 12.25 8.2 2
      vertex 17.5 8.2 2
      vertex 12.25 8.2 10
    endloop
  endfacet
endsolid OpenSCAD_Model
