solid OpenSCAD_Model
  facet normal -1 0 0
    outer loop
      vertex 0 -10 0
      vertex 0 -10 7
      vertex 0 -5 0
    endloop
  endfacet
  facet normal -1 0 0
    outer loop
      vertex 0 -5 0
      vertex 0 -10 7
      vertex 0 -5 7
    endloop
  endfacet
  facet normal 0 -1 0
    outer loop
      vertex 0 -10 7
      vertex 0 -10 0
      vertex 15 -10 0
    endloop
  endfacet
  facet normal 0 -1 0
    outer loop
      vertex 15 -10 7
      vertex 0 -10 7
      vertex 15 -10 0
    endloop
  endfacet
  facet normal 0 0 -1
    outer loop
      vertex 0 -10 0
      vertex 0 -5 0
      vertex 15 -10 0
    endloop
  endfacet
  facet normal 0 0 -1
    outer loop
      vertex 15 -10 0
      vertex 0 -5 0
      vertex 5 -5 0
    endloop
  endfacet
  facet normal 0 0 -1
    outer loop
      vertex 15 -10 0
      vertex 5 -5 0
      vertex 10 -5 0
    endloop
  endfacet
  facet normal 0 0 -1
    outer loop
      vertex 3 4.77817 0
      vertex 0 0 0
      vertex 0 25 0
    endloop
  endfacet
  facet normal 0 0 -1
    outer loop
      vertex 15 -5 0
      vertex 15 -10 0
      vertex 10 -5 0
    endloop
  endfacet
  facet normal 0 0 -1
    outer loop
      vertex 4.16295 22 0
      vertex 0 25 0
      vertex 15 25 0
    endloop
  endfacet
  facet normal 0 0 -1
    outer loop
      vertex 5.5 16.1066 0
      vertex 5.5 13.2782 0
      vertex 3 13.6066 0
    endloop
  endfacet
  facet normal 0 0 -1
    outer loop
      vertex 5 0 0
      vertex 10 0 0
      vertex 10 -5 0
    endloop
  endfacet
  facet normal 0 0 -1
    outer loop
      vertex 5 0 0
      vertex 10 -5 0
      vertex 5 -5 0
    endloop
  endfacet
  facet normal 0 0 -1
    outer loop
      vertex 3 3 0
      vertex 0 0 0
      vertex 3 4.77817 0
    endloop
  endfacet
  facet normal 0 0 -1
    outer loop
      vertex 3 7.6066 0
      vertex 3 4.77817 0
      vertex 0 25 0
    endloop
  endfacet
  facet normal 0 0 -1
    outer loop
      vertex 5 0 0
      vertex 0 0 0
      vertex 3 3 0
    endloop
  endfacet
  facet normal 0 0 -1
    outer loop
      vertex 5.5 5.1066 0
      vertex 4.77817 3 0
      vertex 3 7.6066 0
    endloop
  endfacet
  facet normal 0 0 -1
    outer loop
      vertex 5 0 0
      vertex 4.77817 3 0
      vertex 10 0 0
    endloop
  endfacet
  facet normal 0 0 -1
    outer loop
      vertex 3 10.7782 0
      vertex 3 13.6066 0
      vertex 5.5 13.2782 0
    endloop
  endfacet
  facet normal 0 0 -1
    outer loop
      vertex 5.5 13.2782 0
      vertex 10 0 0
      vertex 5.5 5.1066 0
    endloop
  endfacet
  facet normal 0 0 -1
    outer loop
      vertex 4.77817 3 0
      vertex 5 0 0
      vertex 3 3 0
    endloop
  endfacet
  facet normal 0 0 -1
    outer loop
      vertex 12 11.3345 0
      vertex 15 0 0
      vertex 12 7.05025 0
    endloop
  endfacet
  facet normal 0 0 -1
    outer loop
      vertex 4.77817 3 0
      vertex 5.5 5.1066 0
      vertex 10 0 0
    endloop
  endfacet
  facet normal 0 0 -1
    outer loop
      vertex 5.5 22 0
      vertex 15 25 0
      vertex 5.5 20.663 0
    endloop
  endfacet
  facet normal 0 0 -1
    outer loop
      vertex 9.5 4.55025 0
      vertex 5.5 13.2782 0
      vertex 5.5 16.1066 0
    endloop
  endfacet
  facet normal 0 0 -1
    outer loop
      vertex 5.5 20.663 0
      vertex 3 20.3345 0
      vertex 4.16295 22 0
    endloop
  endfacet
  facet normal 0 0 -1
    outer loop
      vertex 9.5 17.2782 0
      vertex 5.5 16.1066 0
      vertex 15 25 0
    endloop
  endfacet
  facet normal 0 0 -1
    outer loop
      vertex 3 20.3345 0
      vertex 0 25 0
      vertex 4.16295 22 0
    endloop
  endfacet
  facet normal 0 0 -1
    outer loop
      vertex 5.5 22 0
      vertex 4.16295 22 0
      vertex 15 25 0
    endloop
  endfacet
  facet normal 0 0 -1
    outer loop
      vertex 5.5 17.8345 0
      vertex 3 20.3345 0
      vertex 5.5 20.663 0
    endloop
  endfacet
  facet normal 0 0 -1
    outer loop
      vertex 9.5 22 0
      vertex 5.5 20.663 0
      vertex 15 25 0
    endloop
  endfacet
  facet normal 0 0 -1
    outer loop
      vertex 12 7.05025 0
      vertex 15 0 0
      vertex 12 4.22183 0
    endloop
  endfacet
  facet normal 0 0 -1
    outer loop
      vertex 9.5 4.55025 0
      vertex 5.5 16.1066 0
      vertex 9.5 13.8345 0
    endloop
  endfacet
  facet normal 0 0 -1
    outer loop
      vertex 9.5 22 0
      vertex 15 25 0
      vertex 11.3934 22 0
    endloop
  endfacet
  facet normal 0 0 -1
    outer loop
      vertex 3 4.77817 0
      vertex 3 7.6066 0
      vertex 4.77817 3 0
    endloop
  endfacet
  facet normal 0 0 -1
    outer loop
      vertex 3 10.7782 0
      vertex 0 25 0
      vertex 3 13.6066 0
    endloop
  endfacet
  facet normal 0 0 -1
    outer loop
      vertex 9.5 17.2782 0
      vertex 15 25 0
      vertex 12 19.7782 0
    endloop
  endfacet
  facet normal 0 0 -1
    outer loop
      vertex 15 0 0
      vertex 12 11.3345 0
      vertex 15 25 0
    endloop
  endfacet
  facet normal 0 0 -1
    outer loop
      vertex 9.5 16.663 0
      vertex 5.5 16.1066 0
      vertex 9.5 17.2782 0
    endloop
  endfacet
  facet normal 0 0 -1
    outer loop
      vertex 12 14.163 0
      vertex 9.5 13.8345 0
      vertex 9.5 16.663 0
    endloop
  endfacet
  facet normal 0 0 -1
    outer loop
      vertex 9.5 13.8345 0
      vertex 5.5 16.1066 0
      vertex 9.5 16.663 0
    endloop
  endfacet
  facet normal 0 0 -1
    outer loop
      vertex 12 19.7782 0
      vertex 15 25 0
      vertex 12 14.163 0
    endloop
  endfacet
  facet normal 0 0 -1
    outer loop
      vertex 12 11.3345 0
      vertex 9.5 13.8345 0
      vertex 12 14.163 0
    endloop
  endfacet
  facet normal 0 0 -1
    outer loop
      vertex 12 11.3345 0
      vertex 12 14.163 0
      vertex 15 25 0
    endloop
  endfacet
  facet normal 0 0 -1
    outer loop
      vertex 5.5 17.8345 0
      vertex 5.5 20.663 0
      vertex 9.5 22 0
    endloop
  endfacet
  facet normal 0 0 -1
    outer loop
      vertex 9.5 20.1066 0
      vertex 5.5 17.8345 0
      vertex 9.5 22 0
    endloop
  endfacet
  facet normal 0 0 -1
    outer loop
      vertex 5.5 16.1066 0
      vertex 5.5 17.8345 0
      vertex 9.5 20.1066 0
    endloop
  endfacet
  facet normal 0 0 -1
    outer loop
      vertex 5.5 16.1066 0
      vertex 9.5 20.1066 0
      vertex 15 25 0
    endloop
  endfacet
  facet normal 0 0 -1
    outer loop
      vertex 9.5 20.1066 0
      vertex 11.3934 22 0
      vertex 15 25 0
    endloop
  endfacet
  facet normal 0 0 -1
    outer loop
      vertex 3 13.6066 0
      vertex 0 25 0
      vertex 3 20.3345 0
    endloop
  endfacet
  facet normal 0 0 -1
    outer loop
      vertex 12 7.05025 0
      vertex 12 4.22183 0
      vertex 10.7782 3 0
    endloop
  endfacet
  facet normal 0 0 -1
    outer loop
      vertex 12 3 0
      vertex 12 4.22183 0
      vertex 15 0 0
    endloop
  endfacet
  facet normal 0 0 -1
    outer loop
      vertex 10 0 0
      vertex 5.5 13.2782 0
      vertex 9.5 4.55025 0
    endloop
  endfacet
  facet normal 0 0 -1
    outer loop
      vertex 10 0 0
      vertex 9.5 4.55025 0
      vertex 10.7782 3 0
    endloop
  endfacet
  facet normal 0 0 -1
    outer loop
      vertex 12 7.05025 0
      vertex 10.7782 3 0
      vertex 9.5 4.55025 0
    endloop
  endfacet
  facet normal 0 0 -1
    outer loop
      vertex 10 0 0
      vertex 10.7782 3 0
      vertex 12 3 0
    endloop
  endfacet
  facet normal 0 0 -1
    outer loop
      vertex 10 0 0
      vertex 12 3 0
      vertex 15 0 0
    endloop
  endfacet
  facet normal 0 0 -1
    outer loop
      vertex 3 7.6066 0
      vertex 0 25 0
      vertex 3 10.7782 0
    endloop
  endfacet
  facet normal 0 1 0
    outer loop
      vertex 0 -5 0
      vertex 0 -5 7
      vertex 5 -5 0
    endloop
  endfacet
  facet normal 0 1 0
    outer loop
      vertex 5 -5 0
      vertex 0 -5 7
      vertex 5 -5 7
    endloop
  endfacet
  facet normal 0 0 1
    outer loop
      vertex 0 -5 7
      vertex 0 -10 7
      vertex 15 -10 7
    endloop
  endfacet
  facet normal 0 0 1
    outer loop
      vertex 5 -5 7
      vertex 0 -5 7
      vertex 15 -10 7
    endloop
  endfacet
  facet normal 0 0 1
    outer loop
      vertex 10 -5 7
      vertex 5 -5 7
      vertex 15 -10 7
    endloop
  endfacet
  facet normal 0 0 1
    outer loop
      vertex 15 -5 7
      vertex 10 -5 7
      vertex 15 -10 7
    endloop
  endfacet
  facet normal 0 0 1
    outer loop
      vertex 10 0 7
      vertex 5 -5 7
      vertex 10 -5 7
    endloop
  endfacet
  facet normal 0 0 1
    outer loop
      vertex 9.5 0 7
      vertex 5 -5 7
      vertex 10 0 7
    endloop
  endfacet
  facet normal 0 0 1
    outer loop
      vertex 5.5 0 7
      vertex 5 -5 7
      vertex 9.5 0 7
    endloop
  endfacet
  facet normal 0 0 1
    outer loop
      vertex 5 0 7
      vertex 5 -5 7
      vertex 5.5 0 7
    endloop
  endfacet
  facet normal 1 0 0
    outer loop
      vertex 15 -10 7
      vertex 15 -10 0
      vertex 15 -5 0
    endloop
  endfacet
  facet normal 1 0 0
    outer loop
      vertex 15 -5 7
      vertex 15 -10 7
      vertex 15 -5 0
    endloop
  endfacet
  facet normal 0 1 0
    outer loop
      vertex 10 -5 0
      vertex 10 -5 7
      vertex 15 -5 0
    endloop
  endfacet
  facet normal 0 1 0
    outer loop
      vertex 15 -5 0
      vertex 10 -5 7
      vertex 15 -5 7
    endloop
  endfacet
  facet normal 1 0 0
    outer loop
      vertex 10 -5 7
      vertex 10 -5 0
      vertex 10 0 0
    endloop
  endfacet
  facet normal 1 0 0
    outer loop
      vertex 10 0 7
      vertex 10 -5 7
      vertex 10 0 5
    endloop
  endfacet
  facet normal 1 0 0
    outer loop
      vertex 10 0 5
      vertex 10 -5 7
      vertex 10 0 0
    endloop
  endfacet
  facet normal 0 -1 0
    outer loop
      vertex 10 0 5
      vertex 10 0 0
      vertex 15 0 0
    endloop
  endfacet
  facet normal 0 -1 0
    outer loop
      vertex 15 0 5
      vertex 10 0 5
      vertex 15 0 0
    endloop
  endfacet
  facet normal 1 0 0
    outer loop
      vertex 15 0 5
      vertex 15 0 0
      vertex 15 25 0
    endloop
  endfacet
  facet normal 1 0 0
    outer loop
      vertex 15 25 5
      vertex 15 0 5
      vertex 15 25 0
    endloop
  endfacet
  facet normal 0 1 0
    outer loop
      vertex 0 25 0
      vertex 0 25 5
      vertex 15 25 0
    endloop
  endfacet
  facet normal 0 1 0
    outer loop
      vertex 15 25 0
      vertex 0 25 5
      vertex 5.5 25 5
    endloop
  endfacet
  facet normal 0 1 0
    outer loop
      vertex 15 25 0
      vertex 5.5 25 5
      vertex 5.5 25 7
    endloop
  endfacet
  facet normal 0 1 0
    outer loop
      vertex 9.5 25 5
      vertex 5.5 25 7
      vertex 9.5 25 7
    endloop
  endfacet
  facet normal 0 1 0
    outer loop
      vertex 15 25 0
      vertex 5.5 25 7
      vertex 9.5 25 5
    endloop
  endfacet
  facet normal 0 1 0
    outer loop
      vertex 15 25 5
      vertex 15 25 0
      vertex 9.5 25 5
    endloop
  endfacet
  facet normal -1 0 0
    outer loop
      vertex 0 0 0
      vertex 0 0 5
      vertex 0 25 0
    endloop
  endfacet
  facet normal -1 0 0
    outer loop
      vertex 0 25 0
      vertex 0 0 5
      vertex 0 25 5
    endloop
  endfacet
  facet normal 0 -1 0
    outer loop
      vertex 0 0 5
      vertex 0 0 0
      vertex 5 0 0
    endloop
  endfacet
  facet normal 0 -1 0
    outer loop
      vertex 5 0 5
      vertex 0 0 5
      vertex 5 0 0
    endloop
  endfacet
  facet normal -1 0 0
    outer loop
      vertex 5 -5 0
      vertex 5 -5 7
      vertex 5 0 0
    endloop
  endfacet
  facet normal -1 0 0
    outer loop
      vertex 5 0 5
      vertex 5 -5 7
      vertex 5 0 7
    endloop
  endfacet
  facet normal -1 0 0
    outer loop
      vertex 5 0 0
      vertex 5 -5 7
      vertex 5 0 5
    endloop
  endfacet
  facet normal 1 0 0
    outer loop
      vertex 3 4.77817 0
      vertex 3 4.77817 5
      vertex 3 3 5
    endloop
  endfacet
  facet normal 1 0 0
    outer loop
      vertex 3 3 0
      vertex 3 4.77817 0
      vertex 3 3 5
    endloop
  endfacet
  facet normal -0.707107 -0.707107 0
    outer loop
      vertex 3 4.77817 0
      vertex 4.77817 3 0
      vertex 3 4.77817 5
    endloop
  endfacet
  facet normal -0.707107 -0.707107 0
    outer loop
      vertex 3 4.77817 5
      vertex 4.77817 3 0
      vertex 4.77817 3 5
    endloop
  endfacet
  facet normal 0 1 0
    outer loop
      vertex 4.77817 3 5
      vertex 4.77817 3 0
      vertex 3 3 5
    endloop
  endfacet
  facet normal 0 1 0
    outer loop
      vertex 3 3 5
      vertex 4.77817 3 0
      vertex 3 3 0
    endloop
  endfacet
  facet normal 1 0 0
    outer loop
      vertex 3 10.7782 0
      vertex 3 10.7782 5
      vertex 3 7.6066 5
    endloop
  endfacet
  facet normal 1 0 0
    outer loop
      vertex 3 7.6066 0
      vertex 3 10.7782 0
      vertex 3 7.6066 5
    endloop
  endfacet
  facet normal 0.707107 -0.707107 0
    outer loop
      vertex 3 10.7782 5
      vertex 3 10.7782 0
      vertex 5.5 13.2782 0
    endloop
  endfacet
  facet normal 0.707107 -0.707107 0
    outer loop
      vertex 5.5 13.2782 5
      vertex 3 10.7782 5
      vertex 5.5 13.2782 0
    endloop
  endfacet
  facet normal -1 0 0
    outer loop
      vertex 5.5 0 5
      vertex 5.5 0 7
      vertex 5.5 5.1066 5
    endloop
  endfacet
  facet normal -1 0 0
    outer loop
      vertex 5.5 5.1066 5
      vertex 5.5 0 7
      vertex 5.5 0 10
    endloop
  endfacet
  facet normal -1 0 0
    outer loop
      vertex 5.5 5.1066 5
      vertex 5.5 0 10
      vertex 5.5 25 7
    endloop
  endfacet
  facet normal -1 0 0
    outer loop
      vertex 5.5 22 5
      vertex 5.5 25 7
      vertex 5.5 25 5
    endloop
  endfacet
  facet normal -1 0 0
    outer loop
      vertex 5.5 5.1066 5
      vertex 5.5 25 7
      vertex 5.5 13.2782 5
    endloop
  endfacet
  facet normal -1 0 0
    outer loop
      vertex 5.5 20.663 5
      vertex 5.5 22 0
      vertex 5.5 20.663 0
    endloop
  endfacet
  facet normal -1 0 0
    outer loop
      vertex 5.5 22 5
      vertex 5.5 22 0
      vertex 5.5 20.663 5
    endloop
  endfacet
  facet normal -1 0 0
    outer loop
      vertex 5.5 22 5
      vertex 5.5 20.663 5
      vertex 5.5 25 7
    endloop
  endfacet
  facet normal -1 0 0
    outer loop
      vertex 5.5 20.663 5
      vertex 5.5 17.8345 5
      vertex 5.5 25 7
    endloop
  endfacet
  facet normal -1 0 0
    outer loop
      vertex 5.5 13.2782 0
      vertex 5.5 5.1066 5
      vertex 5.5 13.2782 5
    endloop
  endfacet
  facet normal -1 0 0
    outer loop
      vertex 5.5 17.8345 5
      vertex 5.5 16.1066 5
      vertex 5.5 25 7
    endloop
  endfacet
  facet normal -1 0 0
    outer loop
      vertex 5.5 17.8345 0
      vertex 5.5 16.1066 5
      vertex 5.5 17.8345 5
    endloop
  endfacet
  facet normal -1 0 0
    outer loop
      vertex 5.5 16.1066 5
      vertex 5.5 13.2782 5
      vertex 5.5 25 7
    endloop
  endfacet
  facet normal -1 0 0
    outer loop
      vertex 5.5 16.1066 5
      vertex 5.5 17.8345 0
      vertex 5.5 16.1066 0
    endloop
  endfacet
  facet normal -1 0 0
    outer loop
      vertex 5.5 5.1066 5
      vertex 5.5 13.2782 0
      vertex 5.5 5.1066 0
    endloop
  endfacet
  facet normal 0.707107 0.707107 0
    outer loop
      vertex 5.5 5.1066 0
      vertex 3 7.6066 0
      vertex 3 7.6066 5
    endloop
  endfacet
  facet normal 0.707107 0.707107 0
    outer loop
      vertex 5.5 5.1066 5
      vertex 5.5 5.1066 0
      vertex 3 7.6066 5
    endloop
  endfacet
  facet normal 1 0 0
    outer loop
      vertex 3 20.3345 0
      vertex 3 20.3345 5
      vertex 3 13.6066 5
    endloop
  endfacet
  facet normal 1 0 0
    outer loop
      vertex 3 13.6066 0
      vertex 3 20.3345 0
      vertex 3 13.6066 5
    endloop
  endfacet
  facet normal -0.707107 -0.707107 0
    outer loop
      vertex 3 20.3345 0
      vertex 5.5 17.8345 0
      vertex 3 20.3345 5
    endloop
  endfacet
  facet normal -0.707107 -0.707107 0
    outer loop
      vertex 3 20.3345 5
      vertex 5.5 17.8345 0
      vertex 5.5 17.8345 5
    endloop
  endfacet
  facet normal -0.707107 0.707107 0
    outer loop
      vertex 3 13.6066 0
      vertex 3 13.6066 5
      vertex 5.5 16.1066 0
    endloop
  endfacet
  facet normal -0.707107 0.707107 0
    outer loop
      vertex 5.5 16.1066 0
      vertex 3 13.6066 5
      vertex 5.5 16.1066 5
    endloop
  endfacet
  facet normal 0 -1 0
    outer loop
      vertex 5.5 22 0
      vertex 5.5 22 5
      vertex 4.16295 22 5
    endloop
  endfacet
  facet normal 0 -1 0
    outer loop
      vertex 4.16295 22 0
      vertex 5.5 22 0
      vertex 4.16295 22 5
    endloop
  endfacet
  facet normal 0.707107 0.707107 0
    outer loop
      vertex 5.5 20.663 0
      vertex 4.16295 22 0
      vertex 4.16295 22 5
    endloop
  endfacet
  facet normal 0.707107 0.707107 0
    outer loop
      vertex 5.5 20.663 5
      vertex 5.5 20.663 0
      vertex 4.16295 22 5
    endloop
  endfacet
  facet normal 1 0 0
    outer loop
      vertex 9.5 16.663 5
      vertex 9.5 17.2782 5
      vertex 9.5 0 7
    endloop
  endfacet
  facet normal 1 0 0
    outer loop
      vertex 9.5 0 7
      vertex 9.5 0 5
      vertex 9.5 4.55025 5
    endloop
  endfacet
  facet normal 1 0 0
    outer loop
      vertex 9.5 13.8345 5
      vertex 9.5 0 7
      vertex 9.5 4.55025 5
    endloop
  endfacet
  facet normal 1 0 0
    outer loop
      vertex 9.5 4.55025 0
      vertex 9.5 13.8345 0
      vertex 9.5 4.55025 5
    endloop
  endfacet
  facet normal 1 0 0
    outer loop
      vertex 9.5 13.8345 0
      vertex 9.5 13.8345 5
      vertex 9.5 4.55025 5
    endloop
  endfacet
  facet normal 1 0 0
    outer loop
      vertex 9.5 20.1066 5
      vertex 9.5 22 5
      vertex 9.5 0 7
    endloop
  endfacet
  facet normal 1 0 0
    outer loop
      vertex 9.5 13.8345 5
      vertex 9.5 16.663 5
      vertex 9.5 0 7
    endloop
  endfacet
  facet normal 1 0 0
    outer loop
      vertex 9.5 16.663 0
      vertex 9.5 17.2782 0
      vertex 9.5 16.663 5
    endloop
  endfacet
  facet normal 1 0 0
    outer loop
      vertex 9.5 17.2782 0
      vertex 9.5 17.2782 5
      vertex 9.5 16.663 5
    endloop
  endfacet
  facet normal 1 0 0
    outer loop
      vertex 9.5 17.2782 5
      vertex 9.5 20.1066 5
      vertex 9.5 0 7
    endloop
  endfacet
  facet normal 1 0 0
    outer loop
      vertex 9.5 20.1066 0
      vertex 9.5 22 0
      vertex 9.5 20.1066 5
    endloop
  endfacet
  facet normal 1 0 0
    outer loop
      vertex 9.5 22 0
      vertex 9.5 22 5
      vertex 9.5 20.1066 5
    endloop
  endfacet
  facet normal 1 0 0
    outer loop
      vertex 9.5 22 5
      vertex 9.5 25 5
      vertex 9.5 0 7
    endloop
  endfacet
  facet normal 1 0 0
    outer loop
      vertex 9.5 25 5
      vertex 9.5 25 7
      vertex 9.5 0 7
    endloop
  endfacet
  facet normal 1 0 0
    outer loop
      vertex 9.5 25 7
      vertex 9.5 0 10
      vertex 9.5 0 7
    endloop
  endfacet
  facet normal -0.707107 -0.707107 0
    outer loop
      vertex 9.5 13.8345 0
      vertex 12 11.3345 0
      vertex 9.5 13.8345 5
    endloop
  endfacet
  facet normal -0.707107 -0.707107 0
    outer loop
      vertex 9.5 13.8345 5
      vertex 12 11.3345 0
      vertex 12 11.3345 5
    endloop
  endfacet
  facet normal -1 0 0
    outer loop
      vertex 12 11.3345 5
      vertex 12 11.3345 0
      vertex 12 7.05025 5
    endloop
  endfacet
  facet normal -1 0 0
    outer loop
      vertex 12 7.05025 5
      vertex 12 11.3345 0
      vertex 12 7.05025 0
    endloop
  endfacet
  facet normal -0.707107 0.707107 0
    outer loop
      vertex 9.5 4.55025 0
      vertex 9.5 4.55025 5
      vertex 12 7.05025 0
    endloop
  endfacet
  facet normal -0.707107 0.707107 0
    outer loop
      vertex 12 7.05025 0
      vertex 9.5 4.55025 5
      vertex 12 7.05025 5
    endloop
  endfacet
  facet normal 0.707107 -0.707107 0
    outer loop
      vertex 9.5 17.2782 5
      vertex 9.5 17.2782 0
      vertex 12 19.7782 0
    endloop
  endfacet
  facet normal 0.707107 -0.707107 0
    outer loop
      vertex 12 19.7782 5
      vertex 9.5 17.2782 5
      vertex 12 19.7782 0
    endloop
  endfacet
  facet normal -1 0 0
    outer loop
      vertex 12 19.7782 5
      vertex 12 19.7782 0
      vertex 12 14.163 5
    endloop
  endfacet
  facet normal -1 0 0
    outer loop
      vertex 12 14.163 5
      vertex 12 19.7782 0
      vertex 12 14.163 0
    endloop
  endfacet
  facet normal 0.707107 0.707107 0
    outer loop
      vertex 12 14.163 0
      vertex 9.5 16.663 0
      vertex 9.5 16.663 5
    endloop
  endfacet
  facet normal 0.707107 0.707107 0
    outer loop
      vertex 12 14.163 5
      vertex 12 14.163 0
      vertex 9.5 16.663 5
    endloop
  endfacet
  facet normal 0 -1 0
    outer loop
      vertex 11.3934 22 0
      vertex 11.3934 22 5
      vertex 9.5 22 5
    endloop
  endfacet
  facet normal 0 -1 0
    outer loop
      vertex 9.5 22 0
      vertex 11.3934 22 0
      vertex 9.5 22 5
    endloop
  endfacet
  facet normal -0.707107 0.707107 0
    outer loop
      vertex 9.5 20.1066 0
      vertex 9.5 20.1066 5
      vertex 11.3934 22 0
    endloop
  endfacet
  facet normal -0.707107 0.707107 0
    outer loop
      vertex 11.3934 22 0
      vertex 9.5 20.1066 5
      vertex 11.3934 22 5
    endloop
  endfacet
  facet normal 0.707107 -0.707107 0
    outer loop
      vertex 10.7782 3 5
      vertex 10.7782 3 0
      vertex 12 4.22183 0
    endloop
  endfacet
  facet normal 0.707107 -0.707107 0
    outer loop
      vertex 12 4.22183 5
      vertex 10.7782 3 5
      vertex 12 4.22183 0
    endloop
  endfacet
  facet normal 0 1 0
    outer loop
      vertex 12 3 5
      vertex 12 3 0
      vertex 10.7782 3 5
    endloop
  endfacet
  facet normal 0 1 0
    outer loop
      vertex 10.7782 3 5
      vertex 12 3 0
      vertex 10.7782 3 0
    endloop
  endfacet
  facet normal -1 0 0
    outer loop
      vertex 12 4.22183 5
      vertex 12 4.22183 0
      vertex 12 3 5
    endloop
  endfacet
  facet normal -1 0 0
    outer loop
      vertex 12 3 5
      vertex 12 4.22183 0
      vertex 12 3 0
    endloop
  endfacet
  facet normal 0 1 0
    outer loop
      vertex 5.5 0 7
      vertex 5.5 0 5
      vertex 5 0 7
    endloop
  endfacet
  facet normal 0 1 0
    outer loop
      vertex 5 0 7
      vertex 5.5 0 5
      vertex 5 0 5
    endloop
  endfacet
  facet normal 0 -1 0
    outer loop
      vertex 5.5 0 10
      vertex 5.5 0 7
      vertex 9.5 0 7
    endloop
  endfacet
  facet normal 0 -1 0
    outer loop
      vertex 9.5 0 10
      vertex 5.5 0 10
      vertex 9.5 0 7
    endloop
  endfacet
  facet normal 0 1 0
    outer loop
      vertex 10 0 7
      vertex 10 0 5
      vertex 9.5 0 7
    endloop
  endfacet
  facet normal 0 1 0
    outer loop
      vertex 9.5 0 7
      vertex 10 0 5
      vertex 9.5 0 5
    endloop
  endfacet
  facet normal 0 0 1
    outer loop
      vertex 9.5 4.55025 5
      vertex 9.5 0 5
      vertex 10 0 5
    endloop
  endfacet
  facet normal 0 0 1
    outer loop
      vertex 10.7782 3 5
      vertex 12 4.22183 5
      vertex 9.5 4.55025 5
    endloop
  endfacet
  facet normal 0 0 1
    outer loop
      vertex 10.7782 3 5
      vertex 9.5 4.55025 5
      vertex 10 0 5
    endloop
  endfacet
  facet normal 0 0 1
    outer loop
      vertex 12 3 5
      vertex 10.7782 3 5
      vertex 15 0 5
    endloop
  endfacet
  facet normal 0 0 1
    outer loop
      vertex 9.5 25 5
      vertex 9.5 22 5
      vertex 15 25 5
    endloop
  endfacet
  facet normal 0 0 1
    outer loop
      vertex 9.5 22 5
      vertex 11.3934 22 5
      vertex 15 25 5
    endloop
  endfacet
  facet normal 0 0 1
    outer loop
      vertex 9.5 20.1066 5
      vertex 9.5 17.2782 5
      vertex 11.3934 22 5
    endloop
  endfacet
  facet normal 0 0 1
    outer loop
      vertex 11.3934 22 5
      vertex 12 19.7782 5
      vertex 15 25 5
    endloop
  endfacet
  facet normal 0 0 1
    outer loop
      vertex 12 19.7782 5
      vertex 12 14.163 5
      vertex 15 25 5
    endloop
  endfacet
  facet normal 0 0 1
    outer loop
      vertex 9.5 13.8345 5
      vertex 12 11.3345 5
      vertex 12 14.163 5
    endloop
  endfacet
  facet normal 0 0 1
    outer loop
      vertex 12 14.163 5
      vertex 9.5 16.663 5
      vertex 9.5 13.8345 5
    endloop
  endfacet
  facet normal 0 0 1
    outer loop
      vertex 15 25 5
      vertex 12 11.3345 5
      vertex 15 0 5
    endloop
  endfacet
  facet normal 0 0 1
    outer loop
      vertex 12 11.3345 5
      vertex 12 7.05025 5
      vertex 15 0 5
    endloop
  endfacet
  facet normal 0 0 1
    outer loop
      vertex 12 4.22183 5
      vertex 12 3 5
      vertex 15 0 5
    endloop
  endfacet
  facet normal 0 0 1
    outer loop
      vertex 15 0 5
      vertex 10.7782 3 5
      vertex 10 0 5
    endloop
  endfacet
  facet normal 0 0 1
    outer loop
      vertex 12 7.05025 5
      vertex 12 4.22183 5
      vertex 15 0 5
    endloop
  endfacet
  facet normal 0 0 1
    outer loop
      vertex 12 7.05025 5
      vertex 9.5 4.55025 5
      vertex 12 4.22183 5
    endloop
  endfacet
  facet normal 0 0 1
    outer loop
      vertex 12 14.163 5
      vertex 12 11.3345 5
      vertex 15 25 5
    endloop
  endfacet
  facet normal 0 0 1
    outer loop
      vertex 9.5 17.2782 5
      vertex 12 19.7782 5
      vertex 11.3934 22 5
    endloop
  endfacet
  facet normal 0 0.119145 0.992877
    outer loop
      vertex 9.5 0 10
      vertex 9.5 25 7
      vertex 5.5 25 7
    endloop
  endfacet
  facet normal 0 0.119145 0.992877
    outer loop
      vertex 5.5 0 10
      vertex 9.5 0 10
      vertex 5.5 25 7
    endloop
  endfacet
  facet normal 0 0 1
    outer loop
      vertex 3 3 5
      vertex 0 0 5
      vertex 5 0 5
    endloop
  endfacet
  facet normal 0 0 1
    outer loop
      vertex 0 25 5
      vertex 0 0 5
      vertex 3 7.6066 5
    endloop
  endfacet
  facet normal 0 0 1
    outer loop
      vertex 3 10.7782 5
      vertex 5.5 13.2782 5
      vertex 3 13.6066 5
    endloop
  endfacet
  facet normal 0 0 1
    outer loop
      vertex 3 13.6066 5
      vertex 3 20.3345 5
      vertex 0 25 5
    endloop
  endfacet
  facet normal 0 0 1
    outer loop
      vertex 3 4.77817 5
      vertex 4.77817 3 5
      vertex 3 7.6066 5
    endloop
  endfacet
  facet normal 0 0 1
    outer loop
      vertex 5.5 16.1066 5
      vertex 3 13.6066 5
      vertex 5.5 13.2782 5
    endloop
  endfacet
  facet normal 0 0 1
    outer loop
      vertex 5.5 17.8345 5
      vertex 0 25 5
      vertex 3 20.3345 5
    endloop
  endfacet
  facet normal 0 0 1
    outer loop
      vertex 5.5 20.663 5
      vertex 0 25 5
      vertex 5.5 17.8345 5
    endloop
  endfacet
  facet normal 0 0 1
    outer loop
      vertex 4.16295 22 5
      vertex 0 25 5
      vertex 5.5 20.663 5
    endloop
  endfacet
  facet normal 0 0 1
    outer loop
      vertex 5.5 22 5
      vertex 0 25 5
      vertex 4.16295 22 5
    endloop
  endfacet
  facet normal 0 0 1
    outer loop
      vertex 5.5 25 5
      vertex 0 25 5
      vertex 5.5 22 5
    endloop
  endfacet
  facet normal 0 0 1
    outer loop
      vertex 3 4.77817 5
      vertex 0 0 5
      vertex 3 3 5
    endloop
  endfacet
  facet normal 0 0 1
    outer loop
      vertex 3 7.6066 5
      vertex 0 0 5
      vertex 3 4.77817 5
    endloop
  endfacet
  facet normal 0 0 1
    outer loop
      vertex 5.5 0 5
      vertex 4.77817 3 5
      vertex 5 0 5
    endloop
  endfacet
  facet normal 0 0 1
    outer loop
      vertex 3 7.6066 5
      vertex 3 10.7782 5
      vertex 0 25 5
    endloop
  endfacet
  facet normal 0 0 1
    outer loop
      vertex 3 10.7782 5
      vertex 3 13.6066 5
      vertex 0 25 5
    endloop
  endfacet
  facet normal 0 0 1
    outer loop
      vertex 4.77817 3 5
      vertex 3 3 5
      vertex 5 0 5
    endloop
  endfacet
  facet normal 0 0 1
    outer loop
      vertex 5.5 5.1066 5
      vertex 4.77817 3 5
      vertex 5.5 0 5
    endloop
  endfacet
  facet normal 0 0 1
    outer loop
      vertex 5.5 5.1066 5
      vertex 3 7.6066 5
      vertex 4.77817 3 5
    endloop
  endfacet
endsolid OpenSCAD_Model
