solid OpenSCAD_Model
  facet normal -1 0 0
    outer loop
      vertex 0 -10 0
      vertex 0 -10 7
      vertex 0 -5 0
    endloop
  endfacet
  facet normal -1 0 0
    outer loop
      vertex 0 -5 0
      vertex 0 -10 7
      vertex 0 -5 7
    endloop
  endfacet
  facet normal 0 -1 0
    outer loop
      vertex 0 -10 7
      vertex 0 -10 0
      vertex 15 -10 0
    endloop
  endfacet
  facet normal 0 -1 0
    outer loop
      vertex 15 -10 7
      vertex 0 -10 7
      vertex 15 -10 0
    endloop
  endfacet
  facet normal 0 0 -1
    outer loop
      vertex 6.16174 -6.01371 0
      vertex 5 -5 0
      vertex 6.5 -5.76795 0
    endloop
  endfacet
  facet normal 0 0 -1
    outer loop
      vertex 6.16174 -6.01371 0
      vertex 0 -5 0
      vertex 5 -5 0
    endloop
  endfacet
  facet normal 0 0 -1
    outer loop
      vertex 7.70906 -5.51096 0
      vertex 5 -5 0
      vertex 10 -5 0
    endloop
  endfacet
  facet normal 0 0 -1
    outer loop
      vertex 3 4.77817 0
      vertex 0 0 0
      vertex 0 25 0
    endloop
  endfacet
  facet normal 0 0 -1
    outer loop
      vertex 15 -5 0
      vertex 15 -10 0
      vertex 10 -5 0
    endloop
  endfacet
  facet normal 0 0 -1
    outer loop
      vertex 4.16295 22 0
      vertex 0 25 0
      vertex 15 25 0
    endloop
  endfacet
  facet normal 0 0 -1
    outer loop
      vertex 5.5 16.1066 0
      vertex 5.5 13.2782 0
      vertex 3 13.6066 0
    endloop
  endfacet
  facet normal 0 0 -1
    outer loop
      vertex 5 0 0
      vertex 10 0 0
      vertex 10 -5 0
    endloop
  endfacet
  facet normal 0 0 -1
    outer loop
      vertex 5 0 0
      vertex 10 -5 0
      vertex 5 -5 0
    endloop
  endfacet
  facet normal 0 0 -1
    outer loop
      vertex 3 3 0
      vertex 0 0 0
      vertex 3 4.77817 0
    endloop
  endfacet
  facet normal 0 0 -1
    outer loop
      vertex 3 7.6066 0
      vertex 3 4.77817 0
      vertex 0 25 0
    endloop
  endfacet
  facet normal 0 0 -1
    outer loop
      vertex 5 0 0
      vertex 0 0 0
      vertex 3 3 0
    endloop
  endfacet
  facet normal 0 0 -1
    outer loop
      vertex 5.5 5.1066 0
      vertex 4.77817 3 0
      vertex 3 7.6066 0
    endloop
  endfacet
  facet normal 0 0 -1
    outer loop
      vertex 5 0 0
      vertex 4.77817 3 0
      vertex 10 0 0
    endloop
  endfacet
  facet normal 0 0 -1
    outer loop
      vertex 3 10.7782 0
      vertex 3 13.6066 0
      vertex 5.5 13.2782 0
    endloop
  endfacet
  facet normal 0 0 -1
    outer loop
      vertex 5.5 13.2782 0
      vertex 10 0 0
      vertex 5.5 5.1066 0
    endloop
  endfacet
  facet normal 0 0 -1
    outer loop
      vertex 4.77817 3 0
      vertex 5 0 0
      vertex 3 3 0
    endloop
  endfacet
  facet normal 0 0 -1
    outer loop
      vertex 4.77817 3 0
      vertex 5.5 5.1066 0
      vertex 10 0 0
    endloop
  endfacet
  facet normal 0 0 -1
    outer loop
      vertex 5.5 22 0
      vertex 15 25 0
      vertex 5.5 20.663 0
    endloop
  endfacet
  facet normal 0 0 -1
    outer loop
      vertex 8.11803 -9.40211 0
      vertex 15 -10 0
      vertex 7.70906 -9.48904 0
    endloop
  endfacet
  facet normal 0 0 -1
    outer loop
      vertex 5.5 20.663 0
      vertex 3 20.3345 0
      vertex 4.16295 22 0
    endloop
  endfacet
  facet normal 0 0 -1
    outer loop
      vertex 9.5 17.2782 0
      vertex 5.5 16.1066 0
      vertex 15 25 0
    endloop
  endfacet
  facet normal 0 0 -1
    outer loop
      vertex 3 20.3345 0
      vertex 0 25 0
      vertex 4.16295 22 0
    endloop
  endfacet
  facet normal 0 0 -1
    outer loop
      vertex 5.5 22 0
      vertex 4.16295 22 0
      vertex 15 25 0
    endloop
  endfacet
  facet normal 0 0 -1
    outer loop
      vertex 5.5 17.8345 0
      vertex 3 20.3345 0
      vertex 5.5 20.663 0
    endloop
  endfacet
  facet normal 0 0 -1
    outer loop
      vertex 9.5 22 0
      vertex 5.5 20.663 0
      vertex 15 25 0
    endloop
  endfacet
  facet normal 0 0 -1
    outer loop
      vertex 0 -10 0
      vertex 0 -5 0
      vertex 5.5 -7.5 0
    endloop
  endfacet
  facet normal 0 0 -1
    outer loop
      vertex 9.5 4.55025 0
      vertex 5.5 16.1066 0
      vertex 9.5 13.8345 0
    endloop
  endfacet
  facet normal 0 0 -1
    outer loop
      vertex 0 -10 0
      vertex 5.5 -7.5 0
      vertex 5.54371 -7.91582 0
    endloop
  endfacet
  facet normal 0 0 -1
    outer loop
      vertex 0 -10 0
      vertex 5.54371 -7.91582 0
      vertex 5.67291 -8.31347 0
    endloop
  endfacet
  facet normal 0 0 -1
    outer loop
      vertex 0 -10 0
      vertex 5.67291 -8.31347 0
      vertex 5.88197 -8.67557 0
    endloop
  endfacet
  facet normal 0 0 -1
    outer loop
      vertex 0 -10 0
      vertex 5.88197 -8.67557 0
      vertex 6.16174 -8.98629 0
    endloop
  endfacet
  facet normal 0 0 -1
    outer loop
      vertex 0 -10 0
      vertex 6.16174 -8.98629 0
      vertex 6.5 -9.23205 0
    endloop
  endfacet
  facet normal 0 0 -1
    outer loop
      vertex 0 -10 0
      vertex 6.5 -9.23205 0
      vertex 6.88197 -9.40211 0
    endloop
  endfacet
  facet normal 0 0 -1
    outer loop
      vertex 0 -10 0
      vertex 6.88197 -9.40211 0
      vertex 7.29094 -9.48904 0
    endloop
  endfacet
  facet normal 0 0 -1
    outer loop
      vertex 0 -10 0
      vertex 7.29094 -9.48904 0
      vertex 15 -10 0
    endloop
  endfacet
  facet normal 0 0 -1
    outer loop
      vertex 7.29094 -9.48904 0
      vertex 7.70906 -9.48904 0
      vertex 15 -10 0
    endloop
  endfacet
  facet normal 0 0 -1
    outer loop
      vertex 8.5 -9.23205 0
      vertex 15 -10 0
      vertex 8.11803 -9.40211 0
    endloop
  endfacet
  facet normal 0 0 -1
    outer loop
      vertex 8.83826 -8.98629 0
      vertex 15 -10 0
      vertex 8.5 -9.23205 0
    endloop
  endfacet
  facet normal 0 0 -1
    outer loop
      vertex 9.11803 -8.67557 0
      vertex 15 -10 0
      vertex 8.83826 -8.98629 0
    endloop
  endfacet
  facet normal 0 0 -1
    outer loop
      vertex 9.32709 -8.31347 0
      vertex 15 -10 0
      vertex 9.11803 -8.67557 0
    endloop
  endfacet
  facet normal 0 0 -1
    outer loop
      vertex 9.5 4.55025 0
      vertex 5.5 13.2782 0
      vertex 5.5 16.1066 0
    endloop
  endfacet
  facet normal 0 0 -1
    outer loop
      vertex 9.45629 -7.91582 0
      vertex 15 -10 0
      vertex 9.32709 -8.31347 0
    endloop
  endfacet
  facet normal 0 0 -1
    outer loop
      vertex 9.45629 -7.08418 0
      vertex 15 -10 0
      vertex 9.5 -7.5 0
    endloop
  endfacet
  facet normal 0 0 -1
    outer loop
      vertex 15 -10 0
      vertex 9.45629 -7.91582 0
      vertex 9.5 -7.5 0
    endloop
  endfacet
  facet normal 0 0 -1
    outer loop
      vertex 7.29094 -5.51096 0
      vertex 5 -5 0
      vertex 7.70906 -5.51096 0
    endloop
  endfacet
  facet normal 0 0 -1
    outer loop
      vertex 15 -10 0
      vertex 9.45629 -7.08418 0
      vertex 10 -5 0
    endloop
  endfacet
  facet normal 0 0 -1
    outer loop
      vertex 9.45629 -7.08418 0
      vertex 9.32709 -6.68653 0
      vertex 10 -5 0
    endloop
  endfacet
  facet normal 0 0 -1
    outer loop
      vertex 9.32709 -6.68653 0
      vertex 9.11803 -6.32443 0
      vertex 10 -5 0
    endloop
  endfacet
  facet normal 0 0 -1
    outer loop
      vertex 6.5 -5.76795 0
      vertex 5 -5 0
      vertex 6.88197 -5.59789 0
    endloop
  endfacet
  facet normal 0 0 -1
    outer loop
      vertex 9.11803 -6.32443 0
      vertex 8.83826 -6.01371 0
      vertex 10 -5 0
    endloop
  endfacet
  facet normal 0 0 -1
    outer loop
      vertex 6.88197 -5.59789 0
      vertex 5 -5 0
      vertex 7.29094 -5.51096 0
    endloop
  endfacet
  facet normal 0 0 -1
    outer loop
      vertex 8.83826 -6.01371 0
      vertex 8.5 -5.76795 0
      vertex 10 -5 0
    endloop
  endfacet
  facet normal 0 0 -1
    outer loop
      vertex 8.5 -5.76795 0
      vertex 8.11803 -5.59789 0
      vertex 10 -5 0
    endloop
  endfacet
  facet normal 0 0 -1
    outer loop
      vertex 8.11803 -5.59789 0
      vertex 7.70906 -5.51096 0
      vertex 10 -5 0
    endloop
  endfacet
  facet normal 0 0 -1
    outer loop
      vertex 12 11.3345 0
      vertex 15 0 0
      vertex 12 7.05025 0
    endloop
  endfacet
  facet normal 0 0 -1
    outer loop
      vertex 5.88197 -6.32443 0
      vertex 0 -5 0
      vertex 6.16174 -6.01371 0
    endloop
  endfacet
  facet normal 0 0 -1
    outer loop
      vertex 5.54371 -7.08418 0
      vertex 0 -5 0
      vertex 5.67291 -6.68653 0
    endloop
  endfacet
  facet normal 0 0 -1
    outer loop
      vertex 5.67291 -6.68653 0
      vertex 0 -5 0
      vertex 5.88197 -6.32443 0
    endloop
  endfacet
  facet normal 0 0 -1
    outer loop
      vertex 12 7.05025 0
      vertex 15 0 0
      vertex 12 4.22183 0
    endloop
  endfacet
  facet normal 0 0 -1
    outer loop
      vertex 5.5 -7.5 0
      vertex 0 -5 0
      vertex 5.54371 -7.08418 0
    endloop
  endfacet
  facet normal 0 0 -1
    outer loop
      vertex 9.5 22 0
      vertex 15 25 0
      vertex 11.3934 22 0
    endloop
  endfacet
  facet normal 0 0 -1
    outer loop
      vertex 3 4.77817 0
      vertex 3 7.6066 0
      vertex 4.77817 3 0
    endloop
  endfacet
  facet normal 0 0 -1
    outer loop
      vertex 3 10.7782 0
      vertex 0 25 0
      vertex 3 13.6066 0
    endloop
  endfacet
  facet normal 0 0 -1
    outer loop
      vertex 9.5 17.2782 0
      vertex 15 25 0
      vertex 12 19.7782 0
    endloop
  endfacet
  facet normal 0 0 -1
    outer loop
      vertex 15 0 0
      vertex 12 11.3345 0
      vertex 15 25 0
    endloop
  endfacet
  facet normal 0 0 -1
    outer loop
      vertex 9.5 16.663 0
      vertex 5.5 16.1066 0
      vertex 9.5 17.2782 0
    endloop
  endfacet
  facet normal 0 0 -1
    outer loop
      vertex 12 14.163 0
      vertex 9.5 13.8345 0
      vertex 9.5 16.663 0
    endloop
  endfacet
  facet normal 0 0 -1
    outer loop
      vertex 9.5 13.8345 0
      vertex 5.5 16.1066 0
      vertex 9.5 16.663 0
    endloop
  endfacet
  facet normal 0 0 -1
    outer loop
      vertex 12 19.7782 0
      vertex 15 25 0
      vertex 12 14.163 0
    endloop
  endfacet
  facet normal 0 0 -1
    outer loop
      vertex 12 11.3345 0
      vertex 9.5 13.8345 0
      vertex 12 14.163 0
    endloop
  endfacet
  facet normal 0 0 -1
    outer loop
      vertex 12 11.3345 0
      vertex 12 14.163 0
      vertex 15 25 0
    endloop
  endfacet
  facet normal 0 0 -1
    outer loop
      vertex 5.5 17.8345 0
      vertex 5.5 20.663 0
      vertex 9.5 22 0
    endloop
  endfacet
  facet normal 0 0 -1
    outer loop
      vertex 9.5 20.1066 0
      vertex 5.5 17.8345 0
      vertex 9.5 22 0
    endloop
  endfacet
  facet normal 0 0 -1
    outer loop
      vertex 5.5 16.1066 0
      vertex 5.5 17.8345 0
      vertex 9.5 20.1066 0
    endloop
  endfacet
  facet normal 0 0 -1
    outer loop
      vertex 5.5 16.1066 0
      vertex 9.5 20.1066 0
      vertex 15 25 0
    endloop
  endfacet
  facet normal 0 0 -1
    outer loop
      vertex 9.5 20.1066 0
      vertex 11.3934 22 0
      vertex 15 25 0
    endloop
  endfacet
  facet normal 0 0 -1
    outer loop
      vertex 3 13.6066 0
      vertex 0 25 0
      vertex 3 20.3345 0
    endloop
  endfacet
  facet normal 0 0 -1
    outer loop
      vertex 12 7.05025 0
      vertex 12 4.22183 0
      vertex 10.7782 3 0
    endloop
  endfacet
  facet normal 0 0 -1
    outer loop
      vertex 12 3 0
      vertex 12 4.22183 0
      vertex 15 0 0
    endloop
  endfacet
  facet normal 0 0 -1
    outer loop
      vertex 10 0 0
      vertex 5.5 13.2782 0
      vertex 9.5 4.55025 0
    endloop
  endfacet
  facet normal 0 0 -1
    outer loop
      vertex 10 0 0
      vertex 9.5 4.55025 0
      vertex 10.7782 3 0
    endloop
  endfacet
  facet normal 0 0 -1
    outer loop
      vertex 12 7.05025 0
      vertex 10.7782 3 0
      vertex 9.5 4.55025 0
    endloop
  endfacet
  facet normal 0 0 -1
    outer loop
      vertex 10 0 0
      vertex 10.7782 3 0
      vertex 12 3 0
    endloop
  endfacet
  facet normal 0 0 -1
    outer loop
      vertex 10 0 0
      vertex 12 3 0
      vertex 15 0 0
    endloop
  endfacet
  facet normal 0 0 -1
    outer loop
      vertex 3 7.6066 0
      vertex 0 25 0
      vertex 3 10.7782 0
    endloop
  endfacet
  facet normal 0 1 0
    outer loop
      vertex 0 -5 0
      vertex 0 -5 7
      vertex 5 -5 0
    endloop
  endfacet
  facet normal 0 1 0
    outer loop
      vertex 5 -5 0
      vertex 0 -5 7
      vertex 5 -5 7
    endloop
  endfacet
  facet normal 0 0 1
    outer loop
      vertex 7.70906 -9.48904 7
      vertex 0 -10 7
      vertex 15 -10 7
    endloop
  endfacet
  facet normal 0 0 1
    outer loop
      vertex 7.29094 -5.51096 7
      vertex 7.70906 -5.51096 7
      vertex 10 -5 7
    endloop
  endfacet
  facet normal 0 0 1
    outer loop
      vertex 15 -5 7
      vertex 10 -5 7
      vertex 15 -10 7
    endloop
  endfacet
  facet normal 0 0 1
    outer loop
      vertex 5.54371 -7.08418 7
      vertex 5.67291 -6.68653 7
      vertex 0 -5 7
    endloop
  endfacet
  facet normal 0 0 1
    outer loop
      vertex 6.5 -5.76795 7
      vertex 6.88197 -5.59789 7
      vertex 5 -5 7
    endloop
  endfacet
  facet normal 0 0 1
    outer loop
      vertex 10 0 7
      vertex 5 -5 7
      vertex 10 -5 7
    endloop
  endfacet
  facet normal 0 0 1
    outer loop
      vertex 9.32709 -8.31347 7
      vertex 9.11803 -8.67557 7
      vertex 15 -10 7
    endloop
  endfacet
  facet normal 0 0 1
    outer loop
      vertex 7.29094 -9.48904 7
      vertex 6.88197 -9.40211 7
      vertex 0 -10 7
    endloop
  endfacet
  facet normal 0 0 1
    outer loop
      vertex 0 -5 7
      vertex 0 -10 7
      vertex 5.54371 -7.91582 7
    endloop
  endfacet
  facet normal 0 0 1
    outer loop
      vertex 9.11803 -8.67557 7
      vertex 8.83826 -8.98629 7
      vertex 15 -10 7
    endloop
  endfacet
  facet normal 0 0 1
    outer loop
      vertex 0 -5 7
      vertex 5.54371 -7.91582 7
      vertex 5.5 -7.5 7
    endloop
  endfacet
  facet normal 0 0 1
    outer loop
      vertex 0 -5 7
      vertex 5.5 -7.5 7
      vertex 5.54371 -7.08418 7
    endloop
  endfacet
  facet normal 0 0 1
    outer loop
      vertex 6.88197 -9.40211 7
      vertex 6.5 -9.23205 7
      vertex 0 -10 7
    endloop
  endfacet
  facet normal 0 0 1
    outer loop
      vertex 5 -5 7
      vertex 0 -5 7
      vertex 5.67291 -6.68653 7
    endloop
  endfacet
  facet normal 0 0 1
    outer loop
      vertex 5 -5 7
      vertex 5.67291 -6.68653 7
      vertex 5.88197 -6.32443 7
    endloop
  endfacet
  facet normal 0 0 1
    outer loop
      vertex 9.45629 -7.91582 7
      vertex 9.32709 -8.31347 7
      vertex 15 -10 7
    endloop
  endfacet
  facet normal 0 0 1
    outer loop
      vertex 5 -5 7
      vertex 5.88197 -6.32443 7
      vertex 6.16174 -6.01371 7
    endloop
  endfacet
  facet normal 0 0 1
    outer loop
      vertex 9.5 -7.5 7
      vertex 9.45629 -7.91582 7
      vertex 15 -10 7
    endloop
  endfacet
  facet normal 0 0 1
    outer loop
      vertex 5 -5 7
      vertex 6.16174 -6.01371 7
      vertex 6.5 -5.76795 7
    endloop
  endfacet
  facet normal 0 0 1
    outer loop
      vertex 9.45629 -7.08418 7
      vertex 9.5 -7.5 7
      vertex 15 -10 7
    endloop
  endfacet
  facet normal 0 0 1
    outer loop
      vertex 7.29094 -5.51096 7
      vertex 5 -5 7
      vertex 6.88197 -5.59789 7
    endloop
  endfacet
  facet normal 0 0 1
    outer loop
      vertex 8.83826 -6.01371 7
      vertex 9.11803 -6.32443 7
      vertex 15 -10 7
    endloop
  endfacet
  facet normal 0 0 1
    outer loop
      vertex 10 -5 7
      vertex 5 -5 7
      vertex 7.29094 -5.51096 7
    endloop
  endfacet
  facet normal 0 0 1
    outer loop
      vertex 9.32709 -6.68653 7
      vertex 9.45629 -7.08418 7
      vertex 15 -10 7
    endloop
  endfacet
  facet normal 0 0 1
    outer loop
      vertex 9.11803 -6.32443 7
      vertex 9.32709 -6.68653 7
      vertex 15 -10 7
    endloop
  endfacet
  facet normal 0 0 1
    outer loop
      vertex 10 -5 7
      vertex 7.70906 -5.51096 7
      vertex 8.11803 -5.59789 7
    endloop
  endfacet
  facet normal 0 0 1
    outer loop
      vertex 10 -5 7
      vertex 8.5 -5.76795 7
      vertex 15 -10 7
    endloop
  endfacet
  facet normal 0 0 1
    outer loop
      vertex 10 -5 7
      vertex 8.11803 -5.59789 7
      vertex 8.5 -5.76795 7
    endloop
  endfacet
  facet normal 0 0 1
    outer loop
      vertex 8.5 -5.76795 7
      vertex 8.83826 -6.01371 7
      vertex 15 -10 7
    endloop
  endfacet
  facet normal 0 0 1
    outer loop
      vertex 8.83826 -8.98629 7
      vertex 8.5 -9.23205 7
      vertex 15 -10 7
    endloop
  endfacet
  facet normal 0 0 1
    outer loop
      vertex 8.5 -9.23205 7
      vertex 8.11803 -9.40211 7
      vertex 15 -10 7
    endloop
  endfacet
  facet normal 0 0 1
    outer loop
      vertex 8.11803 -9.40211 7
      vertex 7.70906 -9.48904 7
      vertex 15 -10 7
    endloop
  endfacet
  facet normal 0 0 1
    outer loop
      vertex 7.29094 -9.48904 7
      vertex 0 -10 7
      vertex 7.70906 -9.48904 7
    endloop
  endfacet
  facet normal 0 0 1
    outer loop
      vertex 6.16174 -8.98629 7
      vertex 0 -10 7
      vertex 6.5 -9.23205 7
    endloop
  endfacet
  facet normal 0 0 1
    outer loop
      vertex 5.88197 -8.67557 7
      vertex 0 -10 7
      vertex 6.16174 -8.98629 7
    endloop
  endfacet
  facet normal 0 0 1
    outer loop
      vertex 5.67291 -8.31347 7
      vertex 0 -10 7
      vertex 5.88197 -8.67557 7
    endloop
  endfacet
  facet normal 0 0 1
    outer loop
      vertex 5.54371 -7.91582 7
      vertex 0 -10 7
      vertex 5.67291 -8.31347 7
    endloop
  endfacet
  facet normal 0 0 1
    outer loop
      vertex 9.5 0 7
      vertex 5 -5 7
      vertex 10 0 7
    endloop
  endfacet
  facet normal 0 0 1
    outer loop
      vertex 5.5 0 7
      vertex 5 -5 7
      vertex 9.5 0 7
    endloop
  endfacet
  facet normal 0 0 1
    outer loop
      vertex 5 0 7
      vertex 5 -5 7
      vertex 5.5 0 7
    endloop
  endfacet
  facet normal 1 0 0
    outer loop
      vertex 15 -10 7
      vertex 15 -10 0
      vertex 15 -5 0
    endloop
  endfacet
  facet normal 1 0 0
    outer loop
      vertex 15 -5 7
      vertex 15 -10 7
      vertex 15 -5 0
    endloop
  endfacet
  facet normal 0 1 0
    outer loop
      vertex 10 -5 0
      vertex 10 -5 7
      vertex 15 -5 0
    endloop
  endfacet
  facet normal 0 1 0
    outer loop
      vertex 15 -5 0
      vertex 10 -5 7
      vertex 15 -5 7
    endloop
  endfacet
  facet normal 1 0 0
    outer loop
      vertex 10 -5 7
      vertex 10 -5 0
      vertex 10 0 0
    endloop
  endfacet
  facet normal 1 0 0
    outer loop
      vertex 10 0 7
      vertex 10 -5 7
      vertex 10 0 5
    endloop
  endfacet
  facet normal 1 0 0
    outer loop
      vertex 10 0 5
      vertex 10 -5 7
      vertex 10 0 0
    endloop
  endfacet
  facet normal 0 -1 0
    outer loop
      vertex 10 0 5
      vertex 10 0 0
      vertex 15 0 0
    endloop
  endfacet
  facet normal 0 -1 0
    outer loop
      vertex 15 0 5
      vertex 10 0 5
      vertex 15 0 0
    endloop
  endfacet
  facet normal 1 0 0
    outer loop
      vertex 15 0 5
      vertex 15 0 0
      vertex 15 25 0
    endloop
  endfacet
  facet normal 1 0 0
    outer loop
      vertex 15 25 5
      vertex 15 0 5
      vertex 15 25 0
    endloop
  endfacet
  facet normal 0 1 0
    outer loop
      vertex 0 25 0
      vertex 0 25 5
      vertex 15 25 0
    endloop
  endfacet
  facet normal 0 1 0
    outer loop
      vertex 15 25 0
      vertex 0 25 5
      vertex 5.5 25 5
    endloop
  endfacet
  facet normal 0 1 0
    outer loop
      vertex 15 25 0
      vertex 5.5 25 5
      vertex 5.5 25 7
    endloop
  endfacet
  facet normal 0 1 0
    outer loop
      vertex 9.5 25 5
      vertex 5.5 25 7
      vertex 9.5 25 7
    endloop
  endfacet
  facet normal 0 1 0
    outer loop
      vertex 15 25 0
      vertex 5.5 25 7
      vertex 9.5 25 5
    endloop
  endfacet
  facet normal 0 1 0
    outer loop
      vertex 15 25 5
      vertex 15 25 0
      vertex 9.5 25 5
    endloop
  endfacet
  facet normal -1 0 0
    outer loop
      vertex 0 0 0
      vertex 0 0 5
      vertex 0 25 0
    endloop
  endfacet
  facet normal -1 0 0
    outer loop
      vertex 0 25 0
      vertex 0 0 5
      vertex 0 25 5
    endloop
  endfacet
  facet normal 0 -1 0
    outer loop
      vertex 0 0 5
      vertex 0 0 0
      vertex 5 0 0
    endloop
  endfacet
  facet normal 0 -1 0
    outer loop
      vertex 5 0 5
      vertex 0 0 5
      vertex 5 0 0
    endloop
  endfacet
  facet normal -1 0 0
    outer loop
      vertex 5 -5 0
      vertex 5 -5 7
      vertex 5 0 0
    endloop
  endfacet
  facet normal -1 0 0
    outer loop
      vertex 5 0 5
      vertex 5 -5 7
      vertex 5 0 7
    endloop
  endfacet
  facet normal -1 0 0
    outer loop
      vertex 5 0 0
      vertex 5 -5 7
      vertex 5 0 5
    endloop
  endfacet
  facet normal 1 0 0
    outer loop
      vertex 3 4.77817 0
      vertex 3 4.77817 5
      vertex 3 3 5
    endloop
  endfacet
  facet normal 1 0 0
    outer loop
      vertex 3 3 0
      vertex 3 4.77817 0
      vertex 3 3 5
    endloop
  endfacet
  facet normal -0.707107 -0.707107 0
    outer loop
      vertex 3 4.77817 0
      vertex 4.77817 3 0
      vertex 3 4.77817 5
    endloop
  endfacet
  facet normal -0.707107 -0.707107 0
    outer loop
      vertex 3 4.77817 5
      vertex 4.77817 3 0
      vertex 4.77817 3 5
    endloop
  endfacet
  facet normal 0 1 0
    outer loop
      vertex 4.77817 3 5
      vertex 4.77817 3 0
      vertex 3 3 5
    endloop
  endfacet
  facet normal 0 1 0
    outer loop
      vertex 3 3 5
      vertex 4.77817 3 0
      vertex 3 3 0
    endloop
  endfacet
  facet normal 1 0 0
    outer loop
      vertex 3 10.7782 0
      vertex 3 10.7782 5
      vertex 3 7.6066 5
    endloop
  endfacet
  facet normal 1 0 0
    outer loop
      vertex 3 7.6066 0
      vertex 3 10.7782 0
      vertex 3 7.6066 5
    endloop
  endfacet
  facet normal 0.707107 -0.707107 0
    outer loop
      vertex 3 10.7782 5
      vertex 3 10.7782 0
      vertex 5.5 13.2782 0
    endloop
  endfacet
  facet normal 0.707107 -0.707107 0
    outer loop
      vertex 5.5 13.2782 5
      vertex 3 10.7782 5
      vertex 5.5 13.2782 0
    endloop
  endfacet
  facet normal -1 0 0
    outer loop
      vertex 5.5 0 5
      vertex 5.5 0 7
      vertex 5.5 5.1066 5
    endloop
  endfacet
  facet normal -1 0 0
    outer loop
      vertex 5.5 5.1066 5
      vertex 5.5 0 7
      vertex 5.5 0 10
    endloop
  endfacet
  facet normal -1 0 0
    outer loop
      vertex 5.5 5.1066 5
      vertex 5.5 0 10
      vertex 5.5 25 7
    endloop
  endfacet
  facet normal -1 0 0
    outer loop
      vertex 5.5 22 5
      vertex 5.5 25 7
      vertex 5.5 25 5
    endloop
  endfacet
  facet normal -1 0 0
    outer loop
      vertex 5.5 5.1066 5
      vertex 5.5 25 7
      vertex 5.5 13.2782 5
    endloop
  endfacet
  facet normal -1 0 0
    outer loop
      vertex 5.5 20.663 5
      vertex 5.5 22 0
      vertex 5.5 20.663 0
    endloop
  endfacet
  facet normal -1 0 0
    outer loop
      vertex 5.5 22 5
      vertex 5.5 22 0
      vertex 5.5 20.663 5
    endloop
  endfacet
  facet normal -1 0 0
    outer loop
      vertex 5.5 22 5
      vertex 5.5 20.663 5
      vertex 5.5 25 7
    endloop
  endfacet
  facet normal -1 0 0
    outer loop
      vertex 5.5 20.663 5
      vertex 5.5 17.8345 5
      vertex 5.5 25 7
    endloop
  endfacet
  facet normal -1 0 0
    outer loop
      vertex 5.5 13.2782 0
      vertex 5.5 5.1066 5
      vertex 5.5 13.2782 5
    endloop
  endfacet
  facet normal -1 0 0
    outer loop
      vertex 5.5 17.8345 5
      vertex 5.5 16.1066 5
      vertex 5.5 25 7
    endloop
  endfacet
  facet normal -1 0 0
    outer loop
      vertex 5.5 17.8345 0
      vertex 5.5 16.1066 5
      vertex 5.5 17.8345 5
    endloop
  endfacet
  facet normal -1 0 0
    outer loop
      vertex 5.5 16.1066 5
      vertex 5.5 13.2782 5
      vertex 5.5 25 7
    endloop
  endfacet
  facet normal -1 0 0
    outer loop
      vertex 5.5 16.1066 5
      vertex 5.5 17.8345 0
      vertex 5.5 16.1066 0
    endloop
  endfacet
  facet normal -1 0 0
    outer loop
      vertex 5.5 5.1066 5
      vertex 5.5 13.2782 0
      vertex 5.5 5.1066 0
    endloop
  endfacet
  facet normal 0.707107 0.707107 0
    outer loop
      vertex 5.5 5.1066 0
      vertex 3 7.6066 0
      vertex 3 7.6066 5
    endloop
  endfacet
  facet normal 0.707107 0.707107 0
    outer loop
      vertex 5.5 5.1066 5
      vertex 5.5 5.1066 0
      vertex 3 7.6066 5
    endloop
  endfacet
  facet normal 1 0 0
    outer loop
      vertex 3 20.3345 0
      vertex 3 20.3345 5
      vertex 3 13.6066 5
    endloop
  endfacet
  facet normal 1 0 0
    outer loop
      vertex 3 13.6066 0
      vertex 3 20.3345 0
      vertex 3 13.6066 5
    endloop
  endfacet
  facet normal -0.707107 -0.707107 0
    outer loop
      vertex 3 20.3345 0
      vertex 5.5 17.8345 0
      vertex 3 20.3345 5
    endloop
  endfacet
  facet normal -0.707107 -0.707107 0
    outer loop
      vertex 3 20.3345 5
      vertex 5.5 17.8345 0
      vertex 5.5 17.8345 5
    endloop
  endfacet
  facet normal -0.707107 0.707107 0
    outer loop
      vertex 3 13.6066 0
      vertex 3 13.6066 5
      vertex 5.5 16.1066 0
    endloop
  endfacet
  facet normal -0.707107 0.707107 0
    outer loop
      vertex 5.5 16.1066 0
      vertex 3 13.6066 5
      vertex 5.5 16.1066 5
    endloop
  endfacet
  facet normal 0 -1 0
    outer loop
      vertex 5.5 22 0
      vertex 5.5 22 5
      vertex 4.16295 22 5
    endloop
  endfacet
  facet normal 0 -1 0
    outer loop
      vertex 4.16295 22 0
      vertex 5.5 22 0
      vertex 4.16295 22 5
    endloop
  endfacet
  facet normal 0.707107 0.707107 0
    outer loop
      vertex 5.5 20.663 0
      vertex 4.16295 22 0
      vertex 4.16295 22 5
    endloop
  endfacet
  facet normal 0.707107 0.707107 0
    outer loop
      vertex 5.5 20.663 5
      vertex 5.5 20.663 0
      vertex 4.16295 22 5
    endloop
  endfacet
  facet normal 0.994522 -0.104529 0
    outer loop
      vertex 5.54371 -7.08418 0
      vertex 5.54371 -7.08418 7
      vertex 5.5 -7.5 7
    endloop
  endfacet
  facet normal 0.994522 -0.104529 0
    outer loop
      vertex 5.5 -7.5 0
      vertex 5.54371 -7.08418 0
      vertex 5.5 -7.5 7
    endloop
  endfacet
  facet normal 0.994522 0.104529 0
    outer loop
      vertex 5.5 -7.5 7
      vertex 5.54371 -7.91582 7
      vertex 5.54371 -7.91582 0
    endloop
  endfacet
  facet normal 0.994522 0.104529 0
    outer loop
      vertex 5.5 -7.5 0
      vertex 5.5 -7.5 7
      vertex 5.54371 -7.91582 0
    endloop
  endfacet
  facet normal 0.951057 -0.309016 0
    outer loop
      vertex 5.67291 -6.68653 0
      vertex 5.67291 -6.68653 7
      vertex 5.54371 -7.08418 7
    endloop
  endfacet
  facet normal 0.951057 -0.309016 0
    outer loop
      vertex 5.54371 -7.08418 0
      vertex 5.67291 -6.68653 0
      vertex 5.54371 -7.08418 7
    endloop
  endfacet
  facet normal 0.866026 -0.499999 0
    outer loop
      vertex 5.88197 -6.32443 0
      vertex 5.88197 -6.32443 7
      vertex 5.67291 -6.68653 7
    endloop
  endfacet
  facet normal 0.866026 -0.499999 0
    outer loop
      vertex 5.67291 -6.68653 0
      vertex 5.88197 -6.32443 0
      vertex 5.67291 -6.68653 7
    endloop
  endfacet
  facet normal 0.743144 -0.669131 0
    outer loop
      vertex 6.16174 -6.01371 0
      vertex 6.16174 -6.01371 7
      vertex 5.88197 -6.32443 7
    endloop
  endfacet
  facet normal 0.743144 -0.669131 0
    outer loop
      vertex 5.88197 -6.32443 0
      vertex 6.16174 -6.01371 0
      vertex 5.88197 -6.32443 7
    endloop
  endfacet
  facet normal 0.587785 -0.809017 0
    outer loop
      vertex 6.5 -5.76795 0
      vertex 6.5 -5.76795 7
      vertex 6.16174 -6.01371 7
    endloop
  endfacet
  facet normal 0.587785 -0.809017 0
    outer loop
      vertex 6.16174 -6.01371 0
      vertex 6.5 -5.76795 0
      vertex 6.16174 -6.01371 7
    endloop
  endfacet
  facet normal 0.406736 -0.913546 0
    outer loop
      vertex 6.88197 -5.59789 0
      vertex 6.88197 -5.59789 7
      vertex 6.5 -5.76795 7
    endloop
  endfacet
  facet normal 0.406736 -0.913546 0
    outer loop
      vertex 6.5 -5.76795 0
      vertex 6.88197 -5.59789 0
      vertex 6.5 -5.76795 7
    endloop
  endfacet
  facet normal 0.207912 -0.978147 0
    outer loop
      vertex 7.29094 -5.51096 0
      vertex 7.29094 -5.51096 7
      vertex 6.88197 -5.59789 7
    endloop
  endfacet
  facet normal 0.207912 -0.978147 0
    outer loop
      vertex 6.88197 -5.59789 0
      vertex 7.29094 -5.51096 0
      vertex 6.88197 -5.59789 7
    endloop
  endfacet
  facet normal 0 -1 0
    outer loop
      vertex 7.70906 -5.51096 0
      vertex 7.70906 -5.51096 7
      vertex 7.29094 -5.51096 7
    endloop
  endfacet
  facet normal 0 -1 0
    outer loop
      vertex 7.29094 -5.51096 0
      vertex 7.70906 -5.51096 0
      vertex 7.29094 -5.51096 7
    endloop
  endfacet
  facet normal -0.207912 -0.978147 0
    outer loop
      vertex 8.11803 -5.59789 0
      vertex 8.11803 -5.59789 7
      vertex 7.70906 -5.51096 7
    endloop
  endfacet
  facet normal -0.207912 -0.978147 0
    outer loop
      vertex 7.70906 -5.51096 0
      vertex 8.11803 -5.59789 0
      vertex 7.70906 -5.51096 7
    endloop
  endfacet
  facet normal -0.406736 -0.913546 0
    outer loop
      vertex 8.5 -5.76795 0
      vertex 8.5 -5.76795 7
      vertex 8.11803 -5.59789 7
    endloop
  endfacet
  facet normal -0.406736 -0.913546 0
    outer loop
      vertex 8.11803 -5.59789 0
      vertex 8.5 -5.76795 0
      vertex 8.11803 -5.59789 7
    endloop
  endfacet
  facet normal -0.587785 -0.809017 0
    outer loop
      vertex 8.83826 -6.01371 0
      vertex 8.83826 -6.01371 7
      vertex 8.5 -5.76795 7
    endloop
  endfacet
  facet normal -0.587785 -0.809017 0
    outer loop
      vertex 8.5 -5.76795 0
      vertex 8.83826 -6.01371 0
      vertex 8.5 -5.76795 7
    endloop
  endfacet
  facet normal -0.743144 -0.669131 0
    outer loop
      vertex 9.11803 -6.32443 7
      vertex 8.83826 -6.01371 7
      vertex 9.11803 -6.32443 0
    endloop
  endfacet
  facet normal -0.743144 -0.669131 0
    outer loop
      vertex 9.11803 -6.32443 0
      vertex 8.83826 -6.01371 7
      vertex 8.83826 -6.01371 0
    endloop
  endfacet
  facet normal -0.866026 -0.499999 0
    outer loop
      vertex 9.32709 -6.68653 7
      vertex 9.11803 -6.32443 7
      vertex 9.32709 -6.68653 0
    endloop
  endfacet
  facet normal -0.866026 -0.499999 0
    outer loop
      vertex 9.32709 -6.68653 0
      vertex 9.11803 -6.32443 7
      vertex 9.11803 -6.32443 0
    endloop
  endfacet
  facet normal -0.951057 -0.309016 0
    outer loop
      vertex 9.45629 -7.08418 7
      vertex 9.32709 -6.68653 7
      vertex 9.45629 -7.08418 0
    endloop
  endfacet
  facet normal -0.951057 -0.309016 0
    outer loop
      vertex 9.45629 -7.08418 0
      vertex 9.32709 -6.68653 7
      vertex 9.32709 -6.68653 0
    endloop
  endfacet
  facet normal -0.994522 -0.104529 0
    outer loop
      vertex 9.5 -7.5 7
      vertex 9.45629 -7.08418 7
      vertex 9.5 -7.5 0
    endloop
  endfacet
  facet normal -0.994522 -0.104529 0
    outer loop
      vertex 9.5 -7.5 0
      vertex 9.45629 -7.08418 7
      vertex 9.45629 -7.08418 0
    endloop
  endfacet
  facet normal -0.994522 0.104529 0
    outer loop
      vertex 9.5 -7.5 7
      vertex 9.5 -7.5 0
      vertex 9.45629 -7.91582 7
    endloop
  endfacet
  facet normal -0.994522 0.104529 0
    outer loop
      vertex 9.45629 -7.91582 7
      vertex 9.5 -7.5 0
      vertex 9.45629 -7.91582 0
    endloop
  endfacet
  facet normal -0.951057 0.309016 0
    outer loop
      vertex 9.45629 -7.91582 7
      vertex 9.45629 -7.91582 0
      vertex 9.32709 -8.31347 7
    endloop
  endfacet
  facet normal -0.951057 0.309016 0
    outer loop
      vertex 9.32709 -8.31347 7
      vertex 9.45629 -7.91582 0
      vertex 9.32709 -8.31347 0
    endloop
  endfacet
  facet normal -0.866026 0.499999 0
    outer loop
      vertex 9.32709 -8.31347 7
      vertex 9.32709 -8.31347 0
      vertex 9.11803 -8.67557 7
    endloop
  endfacet
  facet normal -0.866026 0.499999 0
    outer loop
      vertex 9.11803 -8.67557 7
      vertex 9.32709 -8.31347 0
      vertex 9.11803 -8.67557 0
    endloop
  endfacet
  facet normal -0.743144 0.669131 0
    outer loop
      vertex 9.11803 -8.67557 7
      vertex 9.11803 -8.67557 0
      vertex 8.83826 -8.98629 7
    endloop
  endfacet
  facet normal -0.743144 0.669131 0
    outer loop
      vertex 8.83826 -8.98629 7
      vertex 9.11803 -8.67557 0
      vertex 8.83826 -8.98629 0
    endloop
  endfacet
  facet normal -0.587785 0.809017 0
    outer loop
      vertex 8.83826 -8.98629 7
      vertex 8.83826 -8.98629 0
      vertex 8.5 -9.23205 7
    endloop
  endfacet
  facet normal -0.587785 0.809017 0
    outer loop
      vertex 8.5 -9.23205 7
      vertex 8.83826 -8.98629 0
      vertex 8.5 -9.23205 0
    endloop
  endfacet
  facet normal -0.406736 0.913546 0
    outer loop
      vertex 8.5 -9.23205 7
      vertex 8.5 -9.23205 0
      vertex 8.11803 -9.40211 7
    endloop
  endfacet
  facet normal -0.406736 0.913546 0
    outer loop
      vertex 8.11803 -9.40211 7
      vertex 8.5 -9.23205 0
      vertex 8.11803 -9.40211 0
    endloop
  endfacet
  facet normal -0.207912 0.978147 0
    outer loop
      vertex 8.11803 -9.40211 7
      vertex 8.11803 -9.40211 0
      vertex 7.70906 -9.48904 7
    endloop
  endfacet
  facet normal -0.207912 0.978147 0
    outer loop
      vertex 7.70906 -9.48904 7
      vertex 8.11803 -9.40211 0
      vertex 7.70906 -9.48904 0
    endloop
  endfacet
  facet normal 0 1 0
    outer loop
      vertex 7.70906 -9.48904 7
      vertex 7.70906 -9.48904 0
      vertex 7.29094 -9.48904 7
    endloop
  endfacet
  facet normal 0 1 0
    outer loop
      vertex 7.29094 -9.48904 7
      vertex 7.70906 -9.48904 0
      vertex 7.29094 -9.48904 0
    endloop
  endfacet
  facet normal 0.207912 0.978147 0
    outer loop
      vertex 7.29094 -9.48904 7
      vertex 7.29094 -9.48904 0
      vertex 6.88197 -9.40211 7
    endloop
  endfacet
  facet normal 0.207912 0.978147 0
    outer loop
      vertex 6.88197 -9.40211 7
      vertex 7.29094 -9.48904 0
      vertex 6.88197 -9.40211 0
    endloop
  endfacet
  facet normal 0.406736 0.913546 0
    outer loop
      vertex 6.88197 -9.40211 7
      vertex 6.88197 -9.40211 0
      vertex 6.5 -9.23205 7
    endloop
  endfacet
  facet normal 0.406736 0.913546 0
    outer loop
      vertex 6.5 -9.23205 7
      vertex 6.88197 -9.40211 0
      vertex 6.5 -9.23205 0
    endloop
  endfacet
  facet normal 0.587785 0.809017 0
    outer loop
      vertex 6.5 -9.23205 7
      vertex 6.5 -9.23205 0
      vertex 6.16174 -8.98629 7
    endloop
  endfacet
  facet normal 0.587785 0.809017 0
    outer loop
      vertex 6.16174 -8.98629 7
      vertex 6.5 -9.23205 0
      vertex 6.16174 -8.98629 0
    endloop
  endfacet
  facet normal 0.743144 0.669131 0
    outer loop
      vertex 5.88197 -8.67557 7
      vertex 6.16174 -8.98629 7
      vertex 6.16174 -8.98629 0
    endloop
  endfacet
  facet normal 0.743144 0.669131 0
    outer loop
      vertex 5.88197 -8.67557 0
      vertex 5.88197 -8.67557 7
      vertex 6.16174 -8.98629 0
    endloop
  endfacet
  facet normal 0.866026 0.499999 0
    outer loop
      vertex 5.67291 -8.31347 7
      vertex 5.88197 -8.67557 7
      vertex 5.88197 -8.67557 0
    endloop
  endfacet
  facet normal 0.866026 0.499999 0
    outer loop
      vertex 5.67291 -8.31347 0
      vertex 5.67291 -8.31347 7
      vertex 5.88197 -8.67557 0
    endloop
  endfacet
  facet normal 0.951057 0.309016 0
    outer loop
      vertex 5.54371 -7.91582 7
      vertex 5.67291 -8.31347 7
      vertex 5.67291 -8.31347 0
    endloop
  endfacet
  facet normal 0.951057 0.309016 0
    outer loop
      vertex 5.54371 -7.91582 0
      vertex 5.54371 -7.91582 7
      vertex 5.67291 -8.31347 0
    endloop
  endfacet
  facet normal 1 0 0
    outer loop
      vertex 9.5 16.663 5
      vertex 9.5 17.2782 5
      vertex 9.5 0 7
    endloop
  endfacet
  facet normal 1 0 0
    outer loop
      vertex 9.5 0 7
      vertex 9.5 0 5
      vertex 9.5 4.55025 5
    endloop
  endfacet
  facet normal 1 0 0
    outer loop
      vertex 9.5 13.8345 5
      vertex 9.5 0 7
      vertex 9.5 4.55025 5
    endloop
  endfacet
  facet normal 1 0 0
    outer loop
      vertex 9.5 4.55025 0
      vertex 9.5 13.8345 0
      vertex 9.5 4.55025 5
    endloop
  endfacet
  facet normal 1 0 0
    outer loop
      vertex 9.5 13.8345 0
      vertex 9.5 13.8345 5
      vertex 9.5 4.55025 5
    endloop
  endfacet
  facet normal 1 0 0
    outer loop
      vertex 9.5 20.1066 5
      vertex 9.5 22 5
      vertex 9.5 0 7
    endloop
  endfacet
  facet normal 1 0 0
    outer loop
      vertex 9.5 13.8345 5
      vertex 9.5 16.663 5
      vertex 9.5 0 7
    endloop
  endfacet
  facet normal 1 0 0
    outer loop
      vertex 9.5 16.663 0
      vertex 9.5 17.2782 0
      vertex 9.5 16.663 5
    endloop
  endfacet
  facet normal 1 0 0
    outer loop
      vertex 9.5 17.2782 0
      vertex 9.5 17.2782 5
      vertex 9.5 16.663 5
    endloop
  endfacet
  facet normal 1 0 0
    outer loop
      vertex 9.5 17.2782 5
      vertex 9.5 20.1066 5
      vertex 9.5 0 7
    endloop
  endfacet
  facet normal 1 0 0
    outer loop
      vertex 9.5 20.1066 0
      vertex 9.5 22 0
      vertex 9.5 20.1066 5
    endloop
  endfacet
  facet normal 1 0 0
    outer loop
      vertex 9.5 22 0
      vertex 9.5 22 5
      vertex 9.5 20.1066 5
    endloop
  endfacet
  facet normal 1 0 0
    outer loop
      vertex 9.5 22 5
      vertex 9.5 25 5
      vertex 9.5 0 7
    endloop
  endfacet
  facet normal 1 0 0
    outer loop
      vertex 9.5 25 5
      vertex 9.5 25 7
      vertex 9.5 0 7
    endloop
  endfacet
  facet normal 1 0 0
    outer loop
      vertex 9.5 25 7
      vertex 9.5 0 10
      vertex 9.5 0 7
    endloop
  endfacet
  facet normal -0.707107 -0.707107 0
    outer loop
      vertex 9.5 13.8345 0
      vertex 12 11.3345 0
      vertex 9.5 13.8345 5
    endloop
  endfacet
  facet normal -0.707107 -0.707107 0
    outer loop
      vertex 9.5 13.8345 5
      vertex 12 11.3345 0
      vertex 12 11.3345 5
    endloop
  endfacet
  facet normal -1 0 0
    outer loop
      vertex 12 11.3345 5
      vertex 12 11.3345 0
      vertex 12 7.05025 5
    endloop
  endfacet
  facet normal -1 0 0
    outer loop
      vertex 12 7.05025 5
      vertex 12 11.3345 0
      vertex 12 7.05025 0
    endloop
  endfacet
  facet normal -0.707107 0.707107 0
    outer loop
      vertex 9.5 4.55025 0
      vertex 9.5 4.55025 5
      vertex 12 7.05025 0
    endloop
  endfacet
  facet normal -0.707107 0.707107 0
    outer loop
      vertex 12 7.05025 0
      vertex 9.5 4.55025 5
      vertex 12 7.05025 5
    endloop
  endfacet
  facet normal 0.707107 -0.707107 0
    outer loop
      vertex 9.5 17.2782 5
      vertex 9.5 17.2782 0
      vertex 12 19.7782 0
    endloop
  endfacet
  facet normal 0.707107 -0.707107 0
    outer loop
      vertex 12 19.7782 5
      vertex 9.5 17.2782 5
      vertex 12 19.7782 0
    endloop
  endfacet
  facet normal -1 0 0
    outer loop
      vertex 12 19.7782 5
      vertex 12 19.7782 0
      vertex 12 14.163 5
    endloop
  endfacet
  facet normal -1 0 0
    outer loop
      vertex 12 14.163 5
      vertex 12 19.7782 0
      vertex 12 14.163 0
    endloop
  endfacet
  facet normal 0.707107 0.707107 0
    outer loop
      vertex 12 14.163 0
      vertex 9.5 16.663 0
      vertex 9.5 16.663 5
    endloop
  endfacet
  facet normal 0.707107 0.707107 0
    outer loop
      vertex 12 14.163 5
      vertex 12 14.163 0
      vertex 9.5 16.663 5
    endloop
  endfacet
  facet normal 0 -1 0
    outer loop
      vertex 11.3934 22 0
      vertex 11.3934 22 5
      vertex 9.5 22 5
    endloop
  endfacet
  facet normal 0 -1 0
    outer loop
      vertex 9.5 22 0
      vertex 11.3934 22 0
      vertex 9.5 22 5
    endloop
  endfacet
  facet normal -0.707107 0.707107 0
    outer loop
      vertex 9.5 20.1066 0
      vertex 9.5 20.1066 5
      vertex 11.3934 22 0
    endloop
  endfacet
  facet normal -0.707107 0.707107 0
    outer loop
      vertex 11.3934 22 0
      vertex 9.5 20.1066 5
      vertex 11.3934 22 5
    endloop
  endfacet
  facet normal 0.707107 -0.707107 0
    outer loop
      vertex 10.7782 3 5
      vertex 10.7782 3 0
      vertex 12 4.22183 0
    endloop
  endfacet
  facet normal 0.707107 -0.707107 0
    outer loop
      vertex 12 4.22183 5
      vertex 10.7782 3 5
      vertex 12 4.22183 0
    endloop
  endfacet
  facet normal 0 1 0
    outer loop
      vertex 12 3 5
      vertex 12 3 0
      vertex 10.7782 3 5
    endloop
  endfacet
  facet normal 0 1 0
    outer loop
      vertex 10.7782 3 5
      vertex 12 3 0
      vertex 10.7782 3 0
    endloop
  endfacet
  facet normal -1 0 0
    outer loop
      vertex 12 4.22183 5
      vertex 12 4.22183 0
      vertex 12 3 5
    endloop
  endfacet
  facet normal -1 0 0
    outer loop
      vertex 12 3 5
      vertex 12 4.22183 0
      vertex 12 3 0
    endloop
  endfacet
  facet normal 0 1 0
    outer loop
      vertex 5.5 0 7
      vertex 5.5 0 5
      vertex 5 0 7
    endloop
  endfacet
  facet normal 0 1 0
    outer loop
      vertex 5 0 7
      vertex 5.5 0 5
      vertex 5 0 5
    endloop
  endfacet
  facet normal 0 -1 0
    outer loop
      vertex 5.5 0 10
      vertex 5.5 0 7
      vertex 9.5 0 7
    endloop
  endfacet
  facet normal 0 -1 0
    outer loop
      vertex 9.5 0 10
      vertex 5.5 0 10
      vertex 9.5 0 7
    endloop
  endfacet
  facet normal 0 1 0
    outer loop
      vertex 10 0 7
      vertex 10 0 5
      vertex 9.5 0 7
    endloop
  endfacet
  facet normal 0 1 0
    outer loop
      vertex 9.5 0 7
      vertex 10 0 5
      vertex 9.5 0 5
    endloop
  endfacet
  facet normal 0 0 1
    outer loop
      vertex 9.5 4.55025 5
      vertex 9.5 0 5
      vertex 10 0 5
    endloop
  endfacet
  facet normal 0 0 1
    outer loop
      vertex 10.7782 3 5
      vertex 12 4.22183 5
      vertex 9.5 4.55025 5
    endloop
  endfacet
  facet normal 0 0 1
    outer loop
      vertex 10.7782 3 5
      vertex 9.5 4.55025 5
      vertex 10 0 5
    endloop
  endfacet
  facet normal 0 0 1
    outer loop
      vertex 12 3 5
      vertex 10.7782 3 5
      vertex 15 0 5
    endloop
  endfacet
  facet normal 0 0 1
    outer loop
      vertex 9.5 25 5
      vertex 9.5 22 5
      vertex 15 25 5
    endloop
  endfacet
  facet normal 0 0 1
    outer loop
      vertex 9.5 22 5
      vertex 11.3934 22 5
      vertex 15 25 5
    endloop
  endfacet
  facet normal 0 0 1
    outer loop
      vertex 9.5 20.1066 5
      vertex 9.5 17.2782 5
      vertex 11.3934 22 5
    endloop
  endfacet
  facet normal 0 0 1
    outer loop
      vertex 11.3934 22 5
      vertex 12 19.7782 5
      vertex 15 25 5
    endloop
  endfacet
  facet normal 0 0 1
    outer loop
      vertex 12 19.7782 5
      vertex 12 14.163 5
      vertex 15 25 5
    endloop
  endfacet
  facet normal 0 0 1
    outer loop
      vertex 9.5 13.8345 5
      vertex 12 11.3345 5
      vertex 12 14.163 5
    endloop
  endfacet
  facet normal 0 0 1
    outer loop
      vertex 12 14.163 5
      vertex 9.5 16.663 5
      vertex 9.5 13.8345 5
    endloop
  endfacet
  facet normal 0 0 1
    outer loop
      vertex 15 25 5
      vertex 12 11.3345 5
      vertex 15 0 5
    endloop
  endfacet
  facet normal 0 0 1
    outer loop
      vertex 12 11.3345 5
      vertex 12 7.05025 5
      vertex 15 0 5
    endloop
  endfacet
  facet normal 0 0 1
    outer loop
      vertex 12 4.22183 5
      vertex 12 3 5
      vertex 15 0 5
    endloop
  endfacet
  facet normal 0 0 1
    outer loop
      vertex 15 0 5
      vertex 10.7782 3 5
      vertex 10 0 5
    endloop
  endfacet
  facet normal 0 0 1
    outer loop
      vertex 12 7.05025 5
      vertex 12 4.22183 5
      vertex 15 0 5
    endloop
  endfacet
  facet normal 0 0 1
    outer loop
      vertex 12 7.05025 5
      vertex 9.5 4.55025 5
      vertex 12 4.22183 5
    endloop
  endfacet
  facet normal 0 0 1
    outer loop
      vertex 12 14.163 5
      vertex 12 11.3345 5
      vertex 15 25 5
    endloop
  endfacet
  facet normal 0 0 1
    outer loop
      vertex 9.5 17.2782 5
      vertex 12 19.7782 5
      vertex 11.3934 22 5
    endloop
  endfacet
  facet normal 0 0.119145 0.992877
    outer loop
      vertex 9.5 0 10
      vertex 9.5 25 7
      vertex 5.5 25 7
    endloop
  endfacet
  facet normal 0 0.119145 0.992877
    outer loop
      vertex 5.5 0 10
      vertex 9.5 0 10
      vertex 5.5 25 7
    endloop
  endfacet
  facet normal 0 0 1
    outer loop
      vertex 3 3 5
      vertex 0 0 5
      vertex 5 0 5
    endloop
  endfacet
  facet normal 0 0 1
    outer loop
      vertex 0 25 5
      vertex 0 0 5
      vertex 3 7.6066 5
    endloop
  endfacet
  facet normal 0 0 1
    outer loop
      vertex 3 10.7782 5
      vertex 5.5 13.2782 5
      vertex 3 13.6066 5
    endloop
  endfacet
  facet normal 0 0 1
    outer loop
      vertex 3 13.6066 5
      vertex 3 20.3345 5
      vertex 0 25 5
    endloop
  endfacet
  facet normal 0 0 1
    outer loop
      vertex 3 4.77817 5
      vertex 4.77817 3 5
      vertex 3 7.6066 5
    endloop
  endfacet
  facet normal 0 0 1
    outer loop
      vertex 5.5 16.1066 5
      vertex 3 13.6066 5
      vertex 5.5 13.2782 5
    endloop
  endfacet
  facet normal 0 0 1
    outer loop
      vertex 5.5 17.8345 5
      vertex 0 25 5
      vertex 3 20.3345 5
    endloop
  endfacet
  facet normal 0 0 1
    outer loop
      vertex 5.5 20.663 5
      vertex 0 25 5
      vertex 5.5 17.8345 5
    endloop
  endfacet
  facet normal 0 0 1
    outer loop
      vertex 4.16295 22 5
      vertex 0 25 5
      vertex 5.5 20.663 5
    endloop
  endfacet
  facet normal 0 0 1
    outer loop
      vertex 5.5 22 5
      vertex 0 25 5
      vertex 4.16295 22 5
    endloop
  endfacet
  facet normal 0 0 1
    outer loop
      vertex 5.5 25 5
      vertex 0 25 5
      vertex 5.5 22 5
    endloop
  endfacet
  facet normal 0 0 1
    outer loop
      vertex 3 4.77817 5
      vertex 0 0 5
      vertex 3 3 5
    endloop
  endfacet
  facet normal 0 0 1
    outer loop
      vertex 3 7.6066 5
      vertex 0 0 5
      vertex 3 4.77817 5
    endloop
  endfacet
  facet normal 0 0 1
    outer loop
      vertex 5.5 0 5
      vertex 4.77817 3 5
      vertex 5 0 5
    endloop
  endfacet
  facet normal 0 0 1
    outer loop
      vertex 3 7.6066 5
      vertex 3 10.7782 5
      vertex 0 25 5
    endloop
  endfacet
  facet normal 0 0 1
    outer loop
      vertex 3 10.7782 5
      vertex 3 13.6066 5
      vertex 0 25 5
    endloop
  endfacet
  facet normal 0 0 1
    outer loop
      vertex 4.77817 3 5
      vertex 3 3 5
      vertex 5 0 5
    endloop
  endfacet
  facet normal 0 0 1
    outer loop
      vertex 5.5 5.1066 5
      vertex 4.77817 3 5
      vertex 5.5 0 5
    endloop
  endfacet
  facet normal 0 0 1
    outer loop
      vertex 5.5 5.1066 5
      vertex 3 7.6066 5
      vertex 4.77817 3 5
    endloop
  endfacet
endsolid OpenSCAD_Model
