solid OpenSCAD_Model
  facet normal 1 0 0
    outer loop
      vertex -7.75 12 10
      vertex -7.75 7.5 8
      vertex -7.75 12 8
    endloop
  endfacet
  facet normal 1 -0 0
    outer loop
      vertex -7.75 2 10
      vertex -7.75 7.5 8
      vertex -7.75 12 10
    endloop
  endfacet
  facet normal 1 0 0
    outer loop
      vertex -7.75 2 0
      vertex -7.75 7.5 8
      vertex -7.75 2 10
    endloop
  endfacet
  facet normal 1 0 0
    outer loop
      vertex -7.75 7.5 8
      vertex -7.75 2 0
      vertex -7.75 7.5 0
    endloop
  endfacet
  facet normal -1 0 0
    outer loop
      vertex 7.75 7.5 0
      vertex 7.75 2 0
      vertex 7.75 7.5 8
    endloop
  endfacet
  facet normal -1 0 0
    outer loop
      vertex 7.75 7.5 8
      vertex 7.75 12 10
      vertex 7.75 12 8
    endloop
  endfacet
  facet normal -1 0 0
    outer loop
      vertex 7.75 7.5 8
      vertex 7.75 2 10
      vertex 7.75 12 10
    endloop
  endfacet
  facet normal -1 0 0
    outer loop
      vertex 7.75 2 10
      vertex 7.75 7.5 8
      vertex 7.75 2 0
    endloop
  endfacet
  facet normal 0 -1 0
    outer loop
      vertex -7.75 7.5 0
      vertex -2.75 7.5 8
      vertex -7.75 7.5 8
    endloop
  endfacet
  facet normal 0 -1 -0
    outer loop
      vertex -2.75 7.5 8
      vertex -7.75 7.5 0
      vertex -2.75 7.5 0
    endloop
  endfacet
  facet normal 0 -1 0
    outer loop
      vertex 2.75 7.5 0
      vertex 7.75 7.5 8
      vertex 2.75 7.5 8
    endloop
  endfacet
  facet normal 0 -1 -0
    outer loop
      vertex 7.75 7.5 8
      vertex 2.75 7.5 0
      vertex 7.75 7.5 0
    endloop
  endfacet
  facet normal 0 0 -1
    outer loop
      vertex 7.75 7.5 0
      vertex 10 0 0
      vertex 7.75 2 0
    endloop
  endfacet
  facet normal 0 0 -1
    outer loop
      vertex 10 0 0
      vertex -7.75 2 0
      vertex 7.75 2 0
    endloop
  endfacet
  facet normal -0 0 -1
    outer loop
      vertex -7.75 2 0
      vertex -10 0 0
      vertex -7.75 7.5 0
    endloop
  endfacet
  facet normal 0 0 -1
    outer loop
      vertex -10 0 0
      vertex -7.75 2 0
      vertex 10 0 0
    endloop
  endfacet
  facet normal 0 0 -1
    outer loop
      vertex 10 0 0
      vertex 7.75 7.5 0
      vertex 10 12 0
    endloop
  endfacet
  facet normal 0 0 -1
    outer loop
      vertex 2.75 12 0
      vertex 7.75 7.5 0
      vertex 2.75 7.5 0
    endloop
  endfacet
  facet normal 0 0 -1
    outer loop
      vertex 7.75 7.5 0
      vertex 2.75 12 0
      vertex 10 12 0
    endloop
  endfacet
  facet normal 0 0 -1
    outer loop
      vertex -7.75 7.5 0
      vertex -2.75 12 0
      vertex -2.75 7.5 0
    endloop
  endfacet
  facet normal 0 0 -1
    outer loop
      vertex -7.75 7.5 0
      vertex -10 12 0
      vertex -2.75 12 0
    endloop
  endfacet
  facet normal 0 0 -1
    outer loop
      vertex -10 12 0
      vertex -7.75 7.5 0
      vertex -10 0 0
    endloop
  endfacet
  facet normal 0 1 -0
    outer loop
      vertex 7.75 2 0
      vertex -7.75 2 10
      vertex 7.75 2 10
    endloop
  endfacet
  facet normal 0 1 0
    outer loop
      vertex -7.75 2 10
      vertex 7.75 2 0
      vertex -7.75 2 0
    endloop
  endfacet
  facet normal 0 1 0
    outer loop
      vertex 10 12 10
      vertex 7.75 12 8
      vertex 7.75 12 10
    endloop
  endfacet
  facet normal 0 1 -0
    outer loop
      vertex 10 12 0
      vertex 7.75 12 8
      vertex 10 12 10
    endloop
  endfacet
  facet normal 0 1 0
    outer loop
      vertex 2.75 12 0
      vertex 7.75 12 8
      vertex 10 12 0
    endloop
  endfacet
  facet normal 0 1 0
    outer loop
      vertex 7.75 12 8
      vertex 2.75 12 0
      vertex 2.75 12 8
    endloop
  endfacet
  facet normal 0 1 0
    outer loop
      vertex -2.75 12 8
      vertex -2.75 12 0
      vertex -7.75 12 8
    endloop
  endfacet
  facet normal 0 1 -0
    outer loop
      vertex -7.75 12 8
      vertex -10 12 10
      vertex -7.75 12 10
    endloop
  endfacet
  facet normal 0 1 0
    outer loop
      vertex -10 12 0
      vertex -7.75 12 8
      vertex -2.75 12 0
    endloop
  endfacet
  facet normal 0 1 0
    outer loop
      vertex -7.75 12 8
      vertex -10 12 0
      vertex -10 12 10
    endloop
  endfacet
  facet normal -0 0 1
    outer loop
      vertex -7.75 12 8
      vertex -2.75 7.5 8
      vertex -2.75 12 8
    endloop
  endfacet
  facet normal 0 0 1
    outer loop
      vertex -2.75 7.5 8
      vertex -7.75 12 8
      vertex -7.75 7.5 8
    endloop
  endfacet
  facet normal -0 0 1
    outer loop
      vertex 2.75 12 8
      vertex 7.75 7.5 8
      vertex 7.75 12 8
    endloop
  endfacet
  facet normal 0 0 1
    outer loop
      vertex 7.75 7.5 8
      vertex 2.75 12 8
      vertex 2.75 7.5 8
    endloop
  endfacet
  facet normal 1 -0 0
    outer loop
      vertex -2.75 7.5 8
      vertex -2.75 12 0
      vertex -2.75 12 8
    endloop
  endfacet
  facet normal 1 0 0
    outer loop
      vertex -2.75 12 0
      vertex -2.75 7.5 8
      vertex -2.75 7.5 0
    endloop
  endfacet
  facet normal -1 0 0
    outer loop
      vertex 2.75 7.5 0
      vertex 2.75 12 8
      vertex 2.75 12 0
    endloop
  endfacet
  facet normal -1 -0 0
    outer loop
      vertex 2.75 12 8
      vertex 2.75 7.5 0
      vertex 2.75 7.5 8
    endloop
  endfacet
  facet normal -1 0 0
    outer loop
      vertex -10 0 0
      vertex -10 12 10
      vertex -10 12 0
    endloop
  endfacet
  facet normal -1 -0 0
    outer loop
      vertex -10 12 10
      vertex -10 0 0
      vertex -10 0 10
    endloop
  endfacet
  facet normal 0 0 1
    outer loop
      vertex -7.75 12 10
      vertex -10 12 10
      vertex -7.75 2 10
    endloop
  endfacet
  facet normal 0 0 1
    outer loop
      vertex 7.75 2 10
      vertex 10 12 10
      vertex 7.75 12 10
    endloop
  endfacet
  facet normal 0 0 1
    outer loop
      vertex 10 12 10
      vertex 7.75 2 10
      vertex 10 0 10
    endloop
  endfacet
  facet normal -0 0 1
    outer loop
      vertex -7.75 2 10
      vertex 10 0 10
      vertex 7.75 2 10
    endloop
  endfacet
  facet normal 0 0 1
    outer loop
      vertex -7.75 2 10
      vertex -10 0 10
      vertex 10 0 10
    endloop
  endfacet
  facet normal 0 0 1
    outer loop
      vertex -10 0 10
      vertex -7.75 2 10
      vertex -10 12 10
    endloop
  endfacet
  facet normal 1 -0 0
    outer loop
      vertex 10 0 10
      vertex 10 12 0
      vertex 10 12 10
    endloop
  endfacet
  facet normal 1 0 0
    outer loop
      vertex 10 12 0
      vertex 10 0 10
      vertex 10 0 0
    endloop
  endfacet
  facet normal 0 -1 0
    outer loop
      vertex -10 0 0
      vertex 10 0 10
      vertex -10 0 10
    endloop
  endfacet
  facet normal 0 -1 -0
    outer loop
      vertex 10 0 10
      vertex -10 0 0
      vertex 10 0 0
    endloop
  endfacet
endsolid OpenSCAD_Model
