solid OpenSCAD_Model
  facet normal -1 0 0
    outer loop
      vertex -5.5 0 0
      vertex -5.5 0 6
      vertex -5.5 20 0
    endloop
  endfacet
  facet normal -1 0 0
    outer loop
      vertex -5.5 20 0
      vertex -5.5 0 6
      vertex -5.5 20 6
    endloop
  endfacet
  facet normal -0.987688 -0.156434 0
    outer loop
      vertex -5.5 0 0
      vertex -5.23081 -1.69959 0
      vertex -5.5 0 6
    endloop
  endfacet
  facet normal -0.987688 -0.156434 0
    outer loop
      vertex -5.5 0 6
      vertex -5.23081 -1.69959 0
      vertex -5.23081 -1.69959 6
    endloop
  endfacet
  facet normal 0 0 -1
    outer loop
      vertex -5.5 0 0
      vertex -5.5 20 0
      vertex -5.23081 -1.69959 0
    endloop
  endfacet
  facet normal 0 0 -1
    outer loop
      vertex -5.23081 -1.69959 0
      vertex -5.5 20 0
      vertex -5.23081 21.6996 0
    endloop
  endfacet
  facet normal 0 0 -1
    outer loop
      vertex -5.23081 -1.69959 0
      vertex -5.23081 21.6996 0
      vertex -4.44959 23.2328 0
    endloop
  endfacet
  facet normal 0 0 -1
    outer loop
      vertex -5.23081 -1.69959 0
      vertex -4.44959 23.2328 0
      vertex -3.23282 24.4496 0
    endloop
  endfacet
  facet normal 0 0 -1
    outer loop
      vertex -5.23081 -1.69959 0
      vertex -3.23282 24.4496 0
      vertex -1.69959 25.2308 0
    endloop
  endfacet
  facet normal 0 0 -1
    outer loop
      vertex -1.3 21.3 0
      vertex -1.69959 25.2308 0
      vertex 0 25.5 0
    endloop
  endfacet
  facet normal 0 0 -1
    outer loop
      vertex 1.3 18.7 0
      vertex 1.69959 25.2308 0
      vertex 3.23282 24.4496 0
    endloop
  endfacet
  facet normal 0 0 -1
    outer loop
      vertex -5.23081 -1.69959 0
      vertex 3.23282 24.4496 0
      vertex 4.44959 23.2328 0
    endloop
  endfacet
  facet normal 0 0 -1
    outer loop
      vertex -5.23081 -1.69959 0
      vertex 4.44959 23.2328 0
      vertex 5.23081 21.6996 0
    endloop
  endfacet
  facet normal 0 0 -1
    outer loop
      vertex -5.23081 -1.69959 0
      vertex 5.23081 21.6996 0
      vertex 5.5 20 0
    endloop
  endfacet
  facet normal 0 0 -1
    outer loop
      vertex 3.3287 1.08156 0
      vertex 5.5 20 0
      vertex 3.5 0 0
    endloop
  endfacet
  facet normal 0 0 -1
    outer loop
      vertex 3.3287 -1.08156 0
      vertex 5.5 0 0
      vertex 5.23081 -1.69959 0
    endloop
  endfacet
  facet normal 0 0 -1
    outer loop
      vertex 2.05725 -2.83156 0
      vertex 5.23081 -1.69959 0
      vertex 4.44959 -3.23282 0
    endloop
  endfacet
  facet normal 0 0 -1
    outer loop
      vertex 1.08156 -3.3287 0
      vertex 4.44959 -3.23282 0
      vertex 3.23282 -4.44959 0
    endloop
  endfacet
  facet normal 0 0 -1
    outer loop
      vertex -1.08156 -3.3287 0
      vertex 3.23282 -4.44959 0
      vertex 1.69959 -5.23081 0
    endloop
  endfacet
  facet normal 0 0 -1
    outer loop
      vertex -5.23081 -1.69959 0
      vertex 1.69959 -5.23081 0
      vertex 0 -5.5 0
    endloop
  endfacet
  facet normal 0 0 -1
    outer loop
      vertex -5.23081 -1.69959 0
      vertex 0 -5.5 0
      vertex -1.69959 -5.23081 0
    endloop
  endfacet
  facet normal 0 0 -1
    outer loop
      vertex -5.23081 -1.69959 0
      vertex -1.69959 -5.23081 0
      vertex -3.23282 -4.44959 0
    endloop
  endfacet
  facet normal 0 0 -1
    outer loop
      vertex -5.23081 -1.69959 0
      vertex -3.23282 -4.44959 0
      vertex -4.44959 -3.23282 0
    endloop
  endfacet
  facet normal 0 0 -1
    outer loop
      vertex -1.3 21.3 0
      vertex 0 25.5 0
      vertex 1.69959 25.2308 0
    endloop
  endfacet
  facet normal 0 0 -1
    outer loop
      vertex 3.5 0 0
      vertex 5.5 20 0
      vertex 5.5 0 0
    endloop
  endfacet
  facet normal 0 0 -1
    outer loop
      vertex -5.23081 -1.69959 0
      vertex -3.5 0 0
      vertex -3.3287 -1.08156 0
    endloop
  endfacet
  facet normal 0 0 -1
    outer loop
      vertex -2.05725 -2.83156 0
      vertex -5.23081 -1.69959 0
      vertex -2.83156 -2.05725 0
    endloop
  endfacet
  facet normal 0 0 -1
    outer loop
      vertex -1.3 18.7 0
      vertex -5.23081 -1.69959 0
      vertex -1.3 21.3 0
    endloop
  endfacet
  facet normal 0 0 -1
    outer loop
      vertex 1.08156 -3.3287 0
      vertex 3.23282 -4.44959 0
      vertex 0 -3.5 0
    endloop
  endfacet
  facet normal 0 0 -1
    outer loop
      vertex -5.23081 -1.69959 0
      vertex -2.05725 -2.83156 0
      vertex 1.69959 -5.23081 0
    endloop
  endfacet
  facet normal 0 0 -1
    outer loop
      vertex 0 -3.5 0
      vertex 3.23282 -4.44959 0
      vertex -1.08156 -3.3287 0
    endloop
  endfacet
  facet normal 0 0 -1
    outer loop
      vertex -2.05725 -2.83156 0
      vertex -1.08156 -3.3287 0
      vertex 1.69959 -5.23081 0
    endloop
  endfacet
  facet normal 0 0 -1
    outer loop
      vertex 2.83156 -2.05725 0
      vertex 5.23081 -1.69959 0
      vertex 2.05725 -2.83156 0
    endloop
  endfacet
  facet normal 0 0 -1
    outer loop
      vertex 3.3287 -1.08156 0
      vertex 5.23081 -1.69959 0
      vertex 2.83156 -2.05725 0
    endloop
  endfacet
  facet normal 0 0 -1
    outer loop
      vertex 2.05725 -2.83156 0
      vertex 4.44959 -3.23282 0
      vertex 1.08156 -3.3287 0
    endloop
  endfacet
  facet normal 0 0 -1
    outer loop
      vertex -2.83156 2.05725 0
      vertex 5.5 20 0
      vertex -2.05725 2.83156 0
    endloop
  endfacet
  facet normal 0 0 -1
    outer loop
      vertex 2.83156 2.05725 0
      vertex 5.5 20 0
      vertex 3.3287 1.08156 0
    endloop
  endfacet
  facet normal 0 0 -1
    outer loop
      vertex 2.05725 2.83156 0
      vertex 5.5 20 0
      vertex 2.83156 2.05725 0
    endloop
  endfacet
  facet normal 0 0 -1
    outer loop
      vertex 1.08156 3.3287 0
      vertex 5.5 20 0
      vertex 2.05725 2.83156 0
    endloop
  endfacet
  facet normal 0 0 -1
    outer loop
      vertex 0 3.5 0
      vertex 5.5 20 0
      vertex 1.08156 3.3287 0
    endloop
  endfacet
  facet normal 0 0 -1
    outer loop
      vertex -1.08156 3.3287 0
      vertex 5.5 20 0
      vertex 0 3.5 0
    endloop
  endfacet
  facet normal 0 0 -1
    outer loop
      vertex -2.05725 2.83156 0
      vertex 5.5 20 0
      vertex -1.08156 3.3287 0
    endloop
  endfacet
  facet normal 0 0 -1
    outer loop
      vertex -1.3 21.3 0
      vertex 1.69959 25.2308 0
      vertex 1.3 21.3 0
    endloop
  endfacet
  facet normal 0 0 -1
    outer loop
      vertex -5.23081 -1.69959 0
      vertex 5.5 20 0
      vertex -2.83156 2.05725 0
    endloop
  endfacet
  facet normal 0 0 -1
    outer loop
      vertex -5.23081 -1.69959 0
      vertex -2.83156 2.05725 0
      vertex -3.3287 1.08156 0
    endloop
  endfacet
  facet normal 0 0 -1
    outer loop
      vertex -5.23081 -1.69959 0
      vertex -3.3287 1.08156 0
      vertex -3.5 0 0
    endloop
  endfacet
  facet normal 0 0 -1
    outer loop
      vertex -5.23081 -1.69959 0
      vertex -1.69959 25.2308 0
      vertex -1.3 21.3 0
    endloop
  endfacet
  facet normal 0 0 -1
    outer loop
      vertex 1.3 18.7 0
      vertex -5.23081 -1.69959 0
      vertex -1.3 18.7 0
    endloop
  endfacet
  facet normal 0 0 -1
    outer loop
      vertex 1.3 21.3 0
      vertex 1.69959 25.2308 0
      vertex 1.3 18.7 0
    endloop
  endfacet
  facet normal 0 0 -1
    outer loop
      vertex -5.23081 -1.69959 0
      vertex 1.3 18.7 0
      vertex 3.23282 24.4496 0
    endloop
  endfacet
  facet normal 0 0 -1
    outer loop
      vertex -2.83156 -2.05725 0
      vertex -5.23081 -1.69959 0
      vertex -3.3287 -1.08156 0
    endloop
  endfacet
  facet normal 0 0 -1
    outer loop
      vertex 3.5 0 0
      vertex 5.5 0 0
      vertex 3.3287 -1.08156 0
    endloop
  endfacet
  facet normal -0.987688 0.156434 0
    outer loop
      vertex -5.5 20 0
      vertex -5.5 20 6
      vertex -5.23081 21.6996 0
    endloop
  endfacet
  facet normal -0.987688 0.156434 0
    outer loop
      vertex -5.23081 21.6996 0
      vertex -5.5 20 6
      vertex -5.23081 21.6996 6
    endloop
  endfacet
  facet normal 0 0 1
    outer loop
      vertex -5.5 20 6
      vertex -5.5 0 6
      vertex -5.23081 -1.69959 6
    endloop
  endfacet
  facet normal 0 0 1
    outer loop
      vertex -3.23282 -4.44959 6
      vertex -5.5 20 6
      vertex -4.44959 -3.23282 6
    endloop
  endfacet
  facet normal 0 0 1
    outer loop
      vertex -4.44959 -3.23282 6
      vertex -5.5 20 6
      vertex -5.23081 -1.69959 6
    endloop
  endfacet
  facet normal 0 0 1
    outer loop
      vertex -1.69959 -5.23081 6
      vertex -5.5 20 6
      vertex -3.23282 -4.44959 6
    endloop
  endfacet
  facet normal 0 0 1
    outer loop
      vertex -1.90211 -0.618034 6
      vertex -5.5 20 6
      vertex -1.69959 -5.23081 6
    endloop
  endfacet
  facet normal 0 0 1
    outer loop
      vertex 1.61803 -1.17557 6
      vertex 1.17557 -1.61803 6
      vertex 3.23282 -4.44959 6
    endloop
  endfacet
  facet normal 0 0 1
    outer loop
      vertex 1.90211 0.618034 6
      vertex 2 0 6
      vertex 4.44959 -3.23282 6
    endloop
  endfacet
  facet normal 0 0 1
    outer loop
      vertex 5.23081 -1.69959 6
      vertex -5.5 20 6
      vertex 4.44959 -3.23282 6
    endloop
  endfacet
  facet normal 0 0 1
    outer loop
      vertex 5.5 0 6
      vertex -5.5 20 6
      vertex 5.23081 -1.69959 6
    endloop
  endfacet
  facet normal 0 0 1
    outer loop
      vertex -1.3 18.7 6
      vertex -5.5 20 6
      vertex 5.5 0 6
    endloop
  endfacet
  facet normal 0 0 1
    outer loop
      vertex 1.3 21.3 6
      vertex 1.3 18.7 6
      vertex 5.5 20 6
    endloop
  endfacet
  facet normal 0 0 1
    outer loop
      vertex 3.23282 24.4496 6
      vertex -5.5 20 6
      vertex 4.44959 23.2328 6
    endloop
  endfacet
  facet normal 0 0 1
    outer loop
      vertex 1.69959 25.2308 6
      vertex -5.5 20 6
      vertex 3.23282 24.4496 6
    endloop
  endfacet
  facet normal 0 0 1
    outer loop
      vertex 0 25.5 6
      vertex -5.5 20 6
      vertex 1.69959 25.2308 6
    endloop
  endfacet
  facet normal 0 0 1
    outer loop
      vertex -1.69959 25.2308 6
      vertex -5.5 20 6
      vertex 0 25.5 6
    endloop
  endfacet
  facet normal 0 0 1
    outer loop
      vertex -3.23282 24.4496 6
      vertex -5.5 20 6
      vertex -1.69959 25.2308 6
    endloop
  endfacet
  facet normal 0 0 1
    outer loop
      vertex -4.44959 23.2328 6
      vertex -5.5 20 6
      vertex -3.23282 24.4496 6
    endloop
  endfacet
  facet normal 0 0 1
    outer loop
      vertex -5.23081 21.6996 6
      vertex -5.5 20 6
      vertex -4.44959 23.2328 6
    endloop
  endfacet
  facet normal 0 0 1
    outer loop
      vertex 0 -5.5 6
      vertex -1.90211 -0.618034 6
      vertex -1.69959 -5.23081 6
    endloop
  endfacet
  facet normal 0 0 1
    outer loop
      vertex -2 0 6
      vertex -5.5 20 6
      vertex -1.90211 -0.618034 6
    endloop
  endfacet
  facet normal 0 0 1
    outer loop
      vertex -1.90211 0.618034 6
      vertex -5.5 20 6
      vertex -2 0 6
    endloop
  endfacet
  facet normal 0 0 1
    outer loop
      vertex -1.61803 1.17557 6
      vertex -5.5 20 6
      vertex -1.90211 0.618034 6
    endloop
  endfacet
  facet normal 0 0 1
    outer loop
      vertex -0.618034 1.90211 6
      vertex 0 2 6
      vertex -5.5 20 6
    endloop
  endfacet
  facet normal 0 0 1
    outer loop
      vertex -0.618034 -1.90211 6
      vertex -1.17557 -1.61803 6
      vertex 0 -5.5 6
    endloop
  endfacet
  facet normal 0 0 1
    outer loop
      vertex -0.618034 1.90211 6
      vertex -5.5 20 6
      vertex -1.17557 1.61803 6
    endloop
  endfacet
  facet normal 0 0 1
    outer loop
      vertex 0 -2 6
      vertex -0.618034 -1.90211 6
      vertex 0 -5.5 6
    endloop
  endfacet
  facet normal 0 0 1
    outer loop
      vertex 0.618034 1.90211 6
      vertex 1.17557 1.61803 6
      vertex -5.5 20 6
    endloop
  endfacet
  facet normal 0 0 1
    outer loop
      vertex 0.618034 1.90211 6
      vertex -5.5 20 6
      vertex 0 2 6
    endloop
  endfacet
  facet normal 0 0 1
    outer loop
      vertex 0.618034 -1.90211 6
      vertex 0 -2 6
      vertex 1.69959 -5.23081 6
    endloop
  endfacet
  facet normal 0 0 1
    outer loop
      vertex 1.90211 -0.618034 6
      vertex 1.61803 -1.17557 6
      vertex 3.23282 -4.44959 6
    endloop
  endfacet
  facet normal 0 0 1
    outer loop
      vertex 1.61803 1.17557 6
      vertex -5.5 20 6
      vertex 1.17557 1.61803 6
    endloop
  endfacet
  facet normal 0 0 1
    outer loop
      vertex 4.44959 -3.23282 6
      vertex -5.5 20 6
      vertex 1.61803 1.17557 6
    endloop
  endfacet
  facet normal 0 0 1
    outer loop
      vertex 2 0 6
      vertex 1.90211 -0.618034 6
      vertex 3.23282 -4.44959 6
    endloop
  endfacet
  facet normal 0 0 1
    outer loop
      vertex 4.44959 -3.23282 6
      vertex 1.61803 1.17557 6
      vertex 1.90211 0.618034 6
    endloop
  endfacet
  facet normal 0 0 1
    outer loop
      vertex 4.44959 -3.23282 6
      vertex 2 0 6
      vertex 3.23282 -4.44959 6
    endloop
  endfacet
  facet normal 0 0 1
    outer loop
      vertex 1.17557 -1.61803 6
      vertex 0.618034 -1.90211 6
      vertex 1.69959 -5.23081 6
    endloop
  endfacet
  facet normal 0 0 1
    outer loop
      vertex 3.23282 -4.44959 6
      vertex 1.17557 -1.61803 6
      vertex 1.69959 -5.23081 6
    endloop
  endfacet
  facet normal 0 0 1
    outer loop
      vertex -1.17557 -1.61803 6
      vertex -1.61803 -1.17557 6
      vertex 0 -5.5 6
    endloop
  endfacet
  facet normal 0 0 1
    outer loop
      vertex 1.69959 -5.23081 6
      vertex 0 -2 6
      vertex 0 -5.5 6
    endloop
  endfacet
  facet normal 0 0 1
    outer loop
      vertex 0 -5.5 6
      vertex -1.61803 -1.17557 6
      vertex -1.90211 -0.618034 6
    endloop
  endfacet
  facet normal 0 0 1
    outer loop
      vertex 1.3 21.3 6
      vertex 5.5 20 6
      vertex 5.23081 21.6996 6
    endloop
  endfacet
  facet normal 0 0 1
    outer loop
      vertex 1.3 18.7 6
      vertex -1.3 18.7 6
      vertex 5.5 0 6
    endloop
  endfacet
  facet normal 0 0 1
    outer loop
      vertex 4.44959 23.2328 6
      vertex -1.3 21.3 6
      vertex 5.23081 21.6996 6
    endloop
  endfacet
  facet normal 0 0 1
    outer loop
      vertex 4.44959 23.2328 6
      vertex -5.5 20 6
      vertex -1.3 21.3 6
    endloop
  endfacet
  facet normal 0 0 1
    outer loop
      vertex -1.3 21.3 6
      vertex 1.3 21.3 6
      vertex 5.23081 21.6996 6
    endloop
  endfacet
  facet normal 0 0 1
    outer loop
      vertex 5.5 20 6
      vertex 1.3 18.7 6
      vertex 5.5 0 6
    endloop
  endfacet
  facet normal 0 0 1
    outer loop
      vertex -1.61803 1.17557 6
      vertex -1.17557 1.61803 6
      vertex -5.5 20 6
    endloop
  endfacet
  facet normal 0 0 1
    outer loop
      vertex -1.3 18.7 6
      vertex -1.3 21.3 6
      vertex -5.5 20 6
    endloop
  endfacet
  facet normal -0.891006 -0.453991 0
    outer loop
      vertex -5.23081 -1.69959 0
      vertex -4.44959 -3.23282 0
      vertex -5.23081 -1.69959 6
    endloop
  endfacet
  facet normal -0.891006 -0.453991 0
    outer loop
      vertex -5.23081 -1.69959 6
      vertex -4.44959 -3.23282 0
      vertex -4.44959 -3.23282 6
    endloop
  endfacet
  facet normal -0.707107 -0.707107 0
    outer loop
      vertex -4.44959 -3.23282 6
      vertex -4.44959 -3.23282 0
      vertex -3.23282 -4.44959 0
    endloop
  endfacet
  facet normal -0.707107 -0.707107 0
    outer loop
      vertex -3.23282 -4.44959 6
      vertex -4.44959 -3.23282 6
      vertex -3.23282 -4.44959 0
    endloop
  endfacet
  facet normal -0.453991 -0.891006 0
    outer loop
      vertex -3.23282 -4.44959 6
      vertex -3.23282 -4.44959 0
      vertex -1.69959 -5.23081 0
    endloop
  endfacet
  facet normal -0.453991 -0.891006 0
    outer loop
      vertex -1.69959 -5.23081 6
      vertex -3.23282 -4.44959 6
      vertex -1.69959 -5.23081 0
    endloop
  endfacet
  facet normal -0.156434 -0.987688 0
    outer loop
      vertex -1.69959 -5.23081 6
      vertex -1.69959 -5.23081 0
      vertex 0 -5.5 0
    endloop
  endfacet
  facet normal -0.156434 -0.987688 0
    outer loop
      vertex 0 -5.5 6
      vertex -1.69959 -5.23081 6
      vertex 0 -5.5 0
    endloop
  endfacet
  facet normal 0.156434 -0.987688 0
    outer loop
      vertex 0 -5.5 6
      vertex 0 -5.5 0
      vertex 1.69959 -5.23081 0
    endloop
  endfacet
  facet normal 0.156434 -0.987688 0
    outer loop
      vertex 1.69959 -5.23081 6
      vertex 0 -5.5 6
      vertex 1.69959 -5.23081 0
    endloop
  endfacet
  facet normal 0.453991 -0.891006 0
    outer loop
      vertex 1.69959 -5.23081 6
      vertex 1.69959 -5.23081 0
      vertex 3.23282 -4.44959 0
    endloop
  endfacet
  facet normal 0.453991 -0.891006 0
    outer loop
      vertex 3.23282 -4.44959 6
      vertex 1.69959 -5.23081 6
      vertex 3.23282 -4.44959 0
    endloop
  endfacet
  facet normal 0.707107 -0.707107 0
    outer loop
      vertex 3.23282 -4.44959 6
      vertex 3.23282 -4.44959 0
      vertex 4.44959 -3.23282 0
    endloop
  endfacet
  facet normal 0.707107 -0.707107 0
    outer loop
      vertex 4.44959 -3.23282 6
      vertex 3.23282 -4.44959 6
      vertex 4.44959 -3.23282 0
    endloop
  endfacet
  facet normal 0.891006 -0.453991 0
    outer loop
      vertex 4.44959 -3.23282 6
      vertex 4.44959 -3.23282 0
      vertex 5.23081 -1.69959 0
    endloop
  endfacet
  facet normal 0.891006 -0.453991 0
    outer loop
      vertex 5.23081 -1.69959 6
      vertex 4.44959 -3.23282 6
      vertex 5.23081 -1.69959 0
    endloop
  endfacet
  facet normal 0.987688 -0.156434 0
    outer loop
      vertex 5.23081 -1.69959 6
      vertex 5.23081 -1.69959 0
      vertex 5.5 0 0
    endloop
  endfacet
  facet normal 0.987688 -0.156434 0
    outer loop
      vertex 5.5 0 6
      vertex 5.23081 -1.69959 6
      vertex 5.5 0 0
    endloop
  endfacet
  facet normal 1 0 0
    outer loop
      vertex 5.5 0 6
      vertex 5.5 0 0
      vertex 5.5 20 0
    endloop
  endfacet
  facet normal 1 0 0
    outer loop
      vertex 5.5 20 6
      vertex 5.5 0 6
      vertex 5.5 20 0
    endloop
  endfacet
  facet normal 0.987688 0.156434 0
    outer loop
      vertex 5.5 20 0
      vertex 5.23081 21.6996 0
      vertex 5.23081 21.6996 6
    endloop
  endfacet
  facet normal 0.987688 0.156434 0
    outer loop
      vertex 5.5 20 6
      vertex 5.5 20 0
      vertex 5.23081 21.6996 6
    endloop
  endfacet
  facet normal 0.891006 0.453991 0
    outer loop
      vertex 5.23081 21.6996 0
      vertex 4.44959 23.2328 0
      vertex 4.44959 23.2328 6
    endloop
  endfacet
  facet normal 0.891006 0.453991 0
    outer loop
      vertex 5.23081 21.6996 6
      vertex 5.23081 21.6996 0
      vertex 4.44959 23.2328 6
    endloop
  endfacet
  facet normal 0.707107 0.707107 0
    outer loop
      vertex 3.23282 24.4496 0
      vertex 3.23282 24.4496 6
      vertex 4.44959 23.2328 0
    endloop
  endfacet
  facet normal 0.707107 0.707107 0
    outer loop
      vertex 4.44959 23.2328 0
      vertex 3.23282 24.4496 6
      vertex 4.44959 23.2328 6
    endloop
  endfacet
  facet normal 0.453991 0.891006 0
    outer loop
      vertex 1.69959 25.2308 0
      vertex 1.69959 25.2308 6
      vertex 3.23282 24.4496 0
    endloop
  endfacet
  facet normal 0.453991 0.891006 0
    outer loop
      vertex 3.23282 24.4496 0
      vertex 1.69959 25.2308 6
      vertex 3.23282 24.4496 6
    endloop
  endfacet
  facet normal 0.156434 0.987688 0
    outer loop
      vertex 0 25.5 0
      vertex 0 25.5 6
      vertex 1.69959 25.2308 0
    endloop
  endfacet
  facet normal 0.156434 0.987688 0
    outer loop
      vertex 1.69959 25.2308 0
      vertex 0 25.5 6
      vertex 1.69959 25.2308 6
    endloop
  endfacet
  facet normal -0.156434 0.987688 0
    outer loop
      vertex -1.69959 25.2308 0
      vertex -1.69959 25.2308 6
      vertex 0 25.5 0
    endloop
  endfacet
  facet normal -0.156434 0.987688 0
    outer loop
      vertex 0 25.5 0
      vertex -1.69959 25.2308 6
      vertex 0 25.5 6
    endloop
  endfacet
  facet normal -0.453991 0.891006 0
    outer loop
      vertex -3.23282 24.4496 0
      vertex -3.23282 24.4496 6
      vertex -1.69959 25.2308 0
    endloop
  endfacet
  facet normal -0.453991 0.891006 0
    outer loop
      vertex -1.69959 25.2308 0
      vertex -3.23282 24.4496 6
      vertex -1.69959 25.2308 6
    endloop
  endfacet
  facet normal -0.707107 0.707107 0
    outer loop
      vertex -4.44959 23.2328 0
      vertex -4.44959 23.2328 6
      vertex -3.23282 24.4496 0
    endloop
  endfacet
  facet normal -0.707107 0.707107 0
    outer loop
      vertex -3.23282 24.4496 0
      vertex -4.44959 23.2328 6
      vertex -3.23282 24.4496 6
    endloop
  endfacet
  facet normal -0.891006 0.453991 0
    outer loop
      vertex -5.23081 21.6996 0
      vertex -5.23081 21.6996 6
      vertex -4.44959 23.2328 0
    endloop
  endfacet
  facet normal -0.891006 0.453991 0
    outer loop
      vertex -4.44959 23.2328 0
      vertex -5.23081 21.6996 6
      vertex -4.44959 23.2328 6
    endloop
  endfacet
  facet normal 0.987688 -0.156434 0
    outer loop
      vertex -3.3287 1.08156 0
      vertex -3.3287 1.08156 5
      vertex -3.5 0 5
    endloop
  endfacet
  facet normal 0.987688 -0.156434 0
    outer loop
      vertex -3.5 0 0
      vertex -3.3287 1.08156 0
      vertex -3.5 0 5
    endloop
  endfacet
  facet normal 0.987688 0.156434 0
    outer loop
      vertex -3.5 0 5
      vertex -3.3287 -1.08156 5
      vertex -3.3287 -1.08156 0
    endloop
  endfacet
  facet normal 0.987688 0.156434 0
    outer loop
      vertex -3.5 0 0
      vertex -3.5 0 5
      vertex -3.3287 -1.08156 0
    endloop
  endfacet
  facet normal 0.891006 -0.453991 0
    outer loop
      vertex -2.83156 2.05725 0
      vertex -2.83156 2.05725 5
      vertex -3.3287 1.08156 5
    endloop
  endfacet
  facet normal 0.891006 -0.453991 0
    outer loop
      vertex -3.3287 1.08156 0
      vertex -2.83156 2.05725 0
      vertex -3.3287 1.08156 5
    endloop
  endfacet
  facet normal 0.707107 -0.707107 0
    outer loop
      vertex -2.05725 2.83156 0
      vertex -2.05725 2.83156 5
      vertex -2.83156 2.05725 5
    endloop
  endfacet
  facet normal 0.707107 -0.707107 0
    outer loop
      vertex -2.83156 2.05725 0
      vertex -2.05725 2.83156 0
      vertex -2.83156 2.05725 5
    endloop
  endfacet
  facet normal 0.453991 -0.891006 0
    outer loop
      vertex -1.08156 3.3287 0
      vertex -1.08156 3.3287 5
      vertex -2.05725 2.83156 5
    endloop
  endfacet
  facet normal 0.453991 -0.891006 0
    outer loop
      vertex -2.05725 2.83156 0
      vertex -1.08156 3.3287 0
      vertex -2.05725 2.83156 5
    endloop
  endfacet
  facet normal 0.156434 -0.987688 0
    outer loop
      vertex 0 3.5 0
      vertex 0 3.5 5
      vertex -1.08156 3.3287 5
    endloop
  endfacet
  facet normal 0.156434 -0.987688 0
    outer loop
      vertex -1.08156 3.3287 0
      vertex 0 3.5 0
      vertex -1.08156 3.3287 5
    endloop
  endfacet
  facet normal -0.156434 -0.987688 0
    outer loop
      vertex 1.08156 3.3287 0
      vertex 1.08156 3.3287 5
      vertex 0 3.5 5
    endloop
  endfacet
  facet normal -0.156434 -0.987688 0
    outer loop
      vertex 0 3.5 0
      vertex 1.08156 3.3287 0
      vertex 0 3.5 5
    endloop
  endfacet
  facet normal -0.453991 -0.891006 0
    outer loop
      vertex 2.05725 2.83156 0
      vertex 2.05725 2.83156 5
      vertex 1.08156 3.3287 5
    endloop
  endfacet
  facet normal -0.453991 -0.891006 0
    outer loop
      vertex 1.08156 3.3287 0
      vertex 2.05725 2.83156 0
      vertex 1.08156 3.3287 5
    endloop
  endfacet
  facet normal -0.707107 -0.707107 0
    outer loop
      vertex 2.83156 2.05725 0
      vertex 2.83156 2.05725 5
      vertex 2.05725 2.83156 5
    endloop
  endfacet
  facet normal -0.707107 -0.707107 0
    outer loop
      vertex 2.05725 2.83156 0
      vertex 2.83156 2.05725 0
      vertex 2.05725 2.83156 5
    endloop
  endfacet
  facet normal -0.891006 -0.453991 0
    outer loop
      vertex 3.3287 1.08156 5
      vertex 2.83156 2.05725 5
      vertex 3.3287 1.08156 0
    endloop
  endfacet
  facet normal -0.891006 -0.453991 0
    outer loop
      vertex 3.3287 1.08156 0
      vertex 2.83156 2.05725 5
      vertex 2.83156 2.05725 0
    endloop
  endfacet
  facet normal -0.987688 -0.156434 0
    outer loop
      vertex 3.5 0 5
      vertex 3.3287 1.08156 5
      vertex 3.5 0 0
    endloop
  endfacet
  facet normal -0.987688 -0.156434 0
    outer loop
      vertex 3.5 0 0
      vertex 3.3287 1.08156 5
      vertex 3.3287 1.08156 0
    endloop
  endfacet
  facet normal -0.987688 0.156434 0
    outer loop
      vertex 3.5 0 5
      vertex 3.5 0 0
      vertex 3.3287 -1.08156 5
    endloop
  endfacet
  facet normal -0.987688 0.156434 0
    outer loop
      vertex 3.3287 -1.08156 5
      vertex 3.5 0 0
      vertex 3.3287 -1.08156 0
    endloop
  endfacet
  facet normal -0.891006 0.453991 0
    outer loop
      vertex 3.3287 -1.08156 5
      vertex 3.3287 -1.08156 0
      vertex 2.83156 -2.05725 5
    endloop
  endfacet
  facet normal -0.891006 0.453991 0
    outer loop
      vertex 2.83156 -2.05725 5
      vertex 3.3287 -1.08156 0
      vertex 2.83156 -2.05725 0
    endloop
  endfacet
  facet normal -0.707107 0.707107 0
    outer loop
      vertex 2.83156 -2.05725 5
      vertex 2.83156 -2.05725 0
      vertex 2.05725 -2.83156 5
    endloop
  endfacet
  facet normal -0.707107 0.707107 0
    outer loop
      vertex 2.05725 -2.83156 5
      vertex 2.83156 -2.05725 0
      vertex 2.05725 -2.83156 0
    endloop
  endfacet
  facet normal -0.453991 0.891006 0
    outer loop
      vertex 2.05725 -2.83156 5
      vertex 2.05725 -2.83156 0
      vertex 1.08156 -3.3287 5
    endloop
  endfacet
  facet normal -0.453991 0.891006 0
    outer loop
      vertex 1.08156 -3.3287 5
      vertex 2.05725 -2.83156 0
      vertex 1.08156 -3.3287 0
    endloop
  endfacet
  facet normal -0.156434 0.987688 0
    outer loop
      vertex 1.08156 -3.3287 5
      vertex 1.08156 -3.3287 0
      vertex 0 -3.5 5
    endloop
  endfacet
  facet normal -0.156434 0.987688 0
    outer loop
      vertex 0 -3.5 5
      vertex 1.08156 -3.3287 0
      vertex 0 -3.5 0
    endloop
  endfacet
  facet normal 0.156434 0.987688 0
    outer loop
      vertex 0 -3.5 5
      vertex 0 -3.5 0
      vertex -1.08156 -3.3287 5
    endloop
  endfacet
  facet normal 0.156434 0.987688 0
    outer loop
      vertex -1.08156 -3.3287 5
      vertex 0 -3.5 0
      vertex -1.08156 -3.3287 0
    endloop
  endfacet
  facet normal 0.453991 0.891006 0
    outer loop
      vertex -1.08156 -3.3287 5
      vertex -1.08156 -3.3287 0
      vertex -2.05725 -2.83156 5
    endloop
  endfacet
  facet normal 0.453991 0.891006 0
    outer loop
      vertex -2.05725 -2.83156 5
      vertex -1.08156 -3.3287 0
      vertex -2.05725 -2.83156 0
    endloop
  endfacet
  facet normal 0.707107 0.707107 0
    outer loop
      vertex -2.05725 -2.83156 5
      vertex -2.05725 -2.83156 0
      vertex -2.83156 -2.05725 5
    endloop
  endfacet
  facet normal 0.707107 0.707107 0
    outer loop
      vertex -2.83156 -2.05725 5
      vertex -2.05725 -2.83156 0
      vertex -2.83156 -2.05725 0
    endloop
  endfacet
  facet normal 0.891006 0.453991 0
    outer loop
      vertex -3.3287 -1.08156 5
      vertex -2.83156 -2.05725 5
      vertex -2.83156 -2.05725 0
    endloop
  endfacet
  facet normal 0.891006 0.453991 0
    outer loop
      vertex -3.3287 -1.08156 0
      vertex -3.3287 -1.08156 5
      vertex -2.83156 -2.05725 0
    endloop
  endfacet
  facet normal 1 0 0
    outer loop
      vertex -1.3 21.3 0
      vertex -1.3 21.3 6
      vertex -1.3 18.7 6
    endloop
  endfacet
  facet normal 1 0 0
    outer loop
      vertex -1.3 18.7 0
      vertex -1.3 21.3 0
      vertex -1.3 18.7 6
    endloop
  endfacet
  facet normal 0 -1 0
    outer loop
      vertex 1.3 21.3 0
      vertex 1.3 21.3 6
      vertex -1.3 21.3 6
    endloop
  endfacet
  facet normal 0 -1 0
    outer loop
      vertex -1.3 21.3 0
      vertex 1.3 21.3 0
      vertex -1.3 21.3 6
    endloop
  endfacet
  facet normal -1 0 0
    outer loop
      vertex 1.3 21.3 6
      vertex 1.3 21.3 0
      vertex 1.3 18.7 6
    endloop
  endfacet
  facet normal -1 0 0
    outer loop
      vertex 1.3 18.7 6
      vertex 1.3 21.3 0
      vertex 1.3 18.7 0
    endloop
  endfacet
  facet normal 0 1 0
    outer loop
      vertex 1.3 18.7 6
      vertex 1.3 18.7 0
      vertex -1.3 18.7 6
    endloop
  endfacet
  facet normal 0 1 0
    outer loop
      vertex -1.3 18.7 6
      vertex 1.3 18.7 0
      vertex -1.3 18.7 0
    endloop
  endfacet
  facet normal 0.987688 0.156435 0
    outer loop
      vertex -2 0 6
      vertex -1.90211 -0.618034 6
      vertex -1.90211 -0.618034 5
    endloop
  endfacet
  facet normal 0.987688 0.156435 0
    outer loop
      vertex -2 0 5
      vertex -2 0 6
      vertex -1.90211 -0.618034 5
    endloop
  endfacet
  facet normal 0.891007 0.45399 0
    outer loop
      vertex -1.90211 -0.618034 6
      vertex -1.61803 -1.17557 6
      vertex -1.61803 -1.17557 5
    endloop
  endfacet
  facet normal 0.891007 0.45399 0
    outer loop
      vertex -1.90211 -0.618034 5
      vertex -1.90211 -0.618034 6
      vertex -1.61803 -1.17557 5
    endloop
  endfacet
  facet normal 0.707107 0.707107 0
    outer loop
      vertex -1.17557 -1.61803 6
      vertex -1.17557 -1.61803 5
      vertex -1.61803 -1.17557 6
    endloop
  endfacet
  facet normal 0.707107 0.707107 0
    outer loop
      vertex -1.61803 -1.17557 6
      vertex -1.17557 -1.61803 5
      vertex -1.61803 -1.17557 5
    endloop
  endfacet
  facet normal 0.45399 0.891007 0
    outer loop
      vertex -0.618034 -1.90211 6
      vertex -0.618034 -1.90211 5
      vertex -1.17557 -1.61803 6
    endloop
  endfacet
  facet normal 0.45399 0.891007 0
    outer loop
      vertex -1.17557 -1.61803 6
      vertex -0.618034 -1.90211 5
      vertex -1.17557 -1.61803 5
    endloop
  endfacet
  facet normal 0.156435 0.987688 0
    outer loop
      vertex 0 -2 6
      vertex 0 -2 5
      vertex -0.618034 -1.90211 6
    endloop
  endfacet
  facet normal 0.156435 0.987688 0
    outer loop
      vertex -0.618034 -1.90211 6
      vertex 0 -2 5
      vertex -0.618034 -1.90211 5
    endloop
  endfacet
  facet normal -0.156435 0.987688 0
    outer loop
      vertex 0.618034 -1.90211 6
      vertex 0.618034 -1.90211 5
      vertex 0 -2 6
    endloop
  endfacet
  facet normal -0.156435 0.987688 0
    outer loop
      vertex 0 -2 6
      vertex 0.618034 -1.90211 5
      vertex 0 -2 5
    endloop
  endfacet
  facet normal -0.45399 0.891007 0
    outer loop
      vertex 1.17557 -1.61803 6
      vertex 1.17557 -1.61803 5
      vertex 0.618034 -1.90211 6
    endloop
  endfacet
  facet normal -0.45399 0.891007 0
    outer loop
      vertex 0.618034 -1.90211 6
      vertex 1.17557 -1.61803 5
      vertex 0.618034 -1.90211 5
    endloop
  endfacet
  facet normal -0.707107 0.707107 0
    outer loop
      vertex 1.61803 -1.17557 6
      vertex 1.61803 -1.17557 5
      vertex 1.17557 -1.61803 6
    endloop
  endfacet
  facet normal -0.707107 0.707107 0
    outer loop
      vertex 1.17557 -1.61803 6
      vertex 1.61803 -1.17557 5
      vertex 1.17557 -1.61803 5
    endloop
  endfacet
  facet normal -0.891007 0.45399 0
    outer loop
      vertex 1.90211 -0.618034 6
      vertex 1.90211 -0.618034 5
      vertex 1.61803 -1.17557 6
    endloop
  endfacet
  facet normal -0.891007 0.45399 0
    outer loop
      vertex 1.61803 -1.17557 6
      vertex 1.90211 -0.618034 5
      vertex 1.61803 -1.17557 5
    endloop
  endfacet
  facet normal -0.987688 0.156435 0
    outer loop
      vertex 2 0 6
      vertex 2 0 5
      vertex 1.90211 -0.618034 6
    endloop
  endfacet
  facet normal -0.987688 0.156435 0
    outer loop
      vertex 1.90211 -0.618034 6
      vertex 2 0 5
      vertex 1.90211 -0.618034 5
    endloop
  endfacet
  facet normal -0.987688 -0.156435 0
    outer loop
      vertex 2 0 6
      vertex 1.90211 0.618034 6
      vertex 2 0 5
    endloop
  endfacet
  facet normal -0.987688 -0.156435 0
    outer loop
      vertex 2 0 5
      vertex 1.90211 0.618034 6
      vertex 1.90211 0.618034 5
    endloop
  endfacet
  facet normal -0.891007 -0.45399 0
    outer loop
      vertex 1.90211 0.618034 6
      vertex 1.61803 1.17557 6
      vertex 1.90211 0.618034 5
    endloop
  endfacet
  facet normal -0.891007 -0.45399 0
    outer loop
      vertex 1.90211 0.618034 5
      vertex 1.61803 1.17557 6
      vertex 1.61803 1.17557 5
    endloop
  endfacet
  facet normal -0.707107 -0.707107 0
    outer loop
      vertex 1.61803 1.17557 5
      vertex 1.61803 1.17557 6
      vertex 1.17557 1.61803 6
    endloop
  endfacet
  facet normal -0.707107 -0.707107 0
    outer loop
      vertex 1.17557 1.61803 5
      vertex 1.61803 1.17557 5
      vertex 1.17557 1.61803 6
    endloop
  endfacet
  facet normal -0.45399 -0.891007 0
    outer loop
      vertex 1.17557 1.61803 5
      vertex 1.17557 1.61803 6
      vertex 0.618034 1.90211 6
    endloop
  endfacet
  facet normal -0.45399 -0.891007 0
    outer loop
      vertex 0.618034 1.90211 5
      vertex 1.17557 1.61803 5
      vertex 0.618034 1.90211 6
    endloop
  endfacet
  facet normal -0.156435 -0.987688 0
    outer loop
      vertex 0.618034 1.90211 5
      vertex 0.618034 1.90211 6
      vertex 0 2 6
    endloop
  endfacet
  facet normal -0.156435 -0.987688 0
    outer loop
      vertex 0 2 5
      vertex 0.618034 1.90211 5
      vertex 0 2 6
    endloop
  endfacet
  facet normal 0.156435 -0.987688 0
    outer loop
      vertex 0 2 5
      vertex 0 2 6
      vertex -0.618034 1.90211 6
    endloop
  endfacet
  facet normal 0.156435 -0.987688 0
    outer loop
      vertex -0.618034 1.90211 5
      vertex 0 2 5
      vertex -0.618034 1.90211 6
    endloop
  endfacet
  facet normal 0.45399 -0.891007 0
    outer loop
      vertex -0.618034 1.90211 5
      vertex -0.618034 1.90211 6
      vertex -1.17557 1.61803 6
    endloop
  endfacet
  facet normal 0.45399 -0.891007 0
    outer loop
      vertex -1.17557 1.61803 5
      vertex -0.618034 1.90211 5
      vertex -1.17557 1.61803 6
    endloop
  endfacet
  facet normal 0.707107 -0.707107 0
    outer loop
      vertex -1.17557 1.61803 5
      vertex -1.17557 1.61803 6
      vertex -1.61803 1.17557 6
    endloop
  endfacet
  facet normal 0.707107 -0.707107 0
    outer loop
      vertex -1.61803 1.17557 5
      vertex -1.17557 1.61803 5
      vertex -1.61803 1.17557 6
    endloop
  endfacet
  facet normal 0.891007 -0.45399 0
    outer loop
      vertex -1.61803 1.17557 5
      vertex -1.61803 1.17557 6
      vertex -1.90211 0.618034 6
    endloop
  endfacet
  facet normal 0.891007 -0.45399 0
    outer loop
      vertex -1.90211 0.618034 5
      vertex -1.61803 1.17557 5
      vertex -1.90211 0.618034 6
    endloop
  endfacet
  facet normal 0.987688 -0.156435 0
    outer loop
      vertex -1.90211 0.618034 5
      vertex -1.90211 0.618034 6
      vertex -2 0 6
    endloop
  endfacet
  facet normal 0.987688 -0.156435 0
    outer loop
      vertex -2 0 5
      vertex -1.90211 0.618034 5
      vertex -2 0 6
    endloop
  endfacet
  facet normal 0 0 -1
    outer loop
      vertex -2.83156 2.05725 5
      vertex -2.05725 2.83156 5
      vertex -3.3287 1.08156 5
    endloop
  endfacet
  facet normal 0 0 -1
    outer loop
      vertex -3.3287 1.08156 5
      vertex -2.05725 2.83156 5
      vertex -1.08156 3.3287 5
    endloop
  endfacet
  facet normal 0 0 -1
    outer loop
      vertex -3.3287 1.08156 5
      vertex -1.08156 3.3287 5
      vertex 0 3.5 5
    endloop
  endfacet
  facet normal 0 0 -1
    outer loop
      vertex -3.3287 1.08156 5
      vertex 0 3.5 5
      vertex 1.08156 3.3287 5
    endloop
  endfacet
  facet normal 0 0 -1
    outer loop
      vertex -3.3287 1.08156 5
      vertex 1.08156 3.3287 5
      vertex 2.05725 2.83156 5
    endloop
  endfacet
  facet normal 0 0 -1
    outer loop
      vertex 0.618034 1.90211 5
      vertex 2.05725 2.83156 5
      vertex 2.83156 2.05725 5
    endloop
  endfacet
  facet normal 0 0 -1
    outer loop
      vertex 1.61803 1.17557 5
      vertex 2.83156 2.05725 5
      vertex 3.3287 1.08156 5
    endloop
  endfacet
  facet normal 0 0 -1
    outer loop
      vertex 1.90211 0.618034 5
      vertex 3.3287 1.08156 5
      vertex 3.5 0 5
    endloop
  endfacet
  facet normal 0 0 -1
    outer loop
      vertex 2 0 5
      vertex 3.5 0 5
      vertex 3.3287 -1.08156 5
    endloop
  endfacet
  facet normal 0 0 -1
    outer loop
      vertex 1.61803 -1.17557 5
      vertex 3.3287 -1.08156 5
      vertex 2.83156 -2.05725 5
    endloop
  endfacet
  facet normal 0 0 -1
    outer loop
      vertex 1.17557 -1.61803 5
      vertex 2.83156 -2.05725 5
      vertex 2.05725 -2.83156 5
    endloop
  endfacet
  facet normal 0 0 -1
    outer loop
      vertex 0 -2 5
      vertex 2.05725 -2.83156 5
      vertex 1.08156 -3.3287 5
    endloop
  endfacet
  facet normal 0 0 -1
    outer loop
      vertex -1.17557 -1.61803 5
      vertex 1.08156 -3.3287 5
      vertex 0 -3.5 5
    endloop
  endfacet
  facet normal 0 0 -1
    outer loop
      vertex -3.3287 1.08156 5
      vertex 0 -3.5 5
      vertex -1.08156 -3.3287 5
    endloop
  endfacet
  facet normal 0 0 -1
    outer loop
      vertex -3.3287 1.08156 5
      vertex -1.08156 -3.3287 5
      vertex -2.05725 -2.83156 5
    endloop
  endfacet
  facet normal 0 0 -1
    outer loop
      vertex -3.3287 1.08156 5
      vertex -2.05725 -2.83156 5
      vertex -2.83156 -2.05725 5
    endloop
  endfacet
  facet normal 0 0 -1
    outer loop
      vertex -3.3287 1.08156 5
      vertex -2.83156 -2.05725 5
      vertex -3.3287 -1.08156 5
    endloop
  endfacet
  facet normal 0 0 -1
    outer loop
      vertex -3.3287 1.08156 5
      vertex -3.3287 -1.08156 5
      vertex -3.5 0 5
    endloop
  endfacet
  facet normal 0 0 -1
    outer loop
      vertex -1.17557 -1.61803 5
      vertex 0 -3.5 5
      vertex -1.61803 -1.17557 5
    endloop
  endfacet
  facet normal 0 0 -1
    outer loop
      vertex -3.3287 1.08156 5
      vertex -1.90211 -0.618034 5
      vertex -1.61803 -1.17557 5
    endloop
  endfacet
  facet normal 0 0 -1
    outer loop
      vertex -3.3287 1.08156 5
      vertex -1.61803 -1.17557 5
      vertex 0 -3.5 5
    endloop
  endfacet
  facet normal 0 0 -1
    outer loop
      vertex -0.618034 -1.90211 5
      vertex 1.08156 -3.3287 5
      vertex -1.17557 -1.61803 5
    endloop
  endfacet
  facet normal 0 0 -1
    outer loop
      vertex 0 -2 5
      vertex 1.08156 -3.3287 5
      vertex -0.618034 -1.90211 5
    endloop
  endfacet
  facet normal 0 0 -1
    outer loop
      vertex 0.618034 -1.90211 5
      vertex 2.05725 -2.83156 5
      vertex 0 -2 5
    endloop
  endfacet
  facet normal 0 0 -1
    outer loop
      vertex 1.61803 -1.17557 5
      vertex 2.83156 -2.05725 5
      vertex 1.17557 -1.61803 5
    endloop
  endfacet
  facet normal 0 0 -1
    outer loop
      vertex 1.90211 -0.618034 5
      vertex 3.3287 -1.08156 5
      vertex 1.61803 -1.17557 5
    endloop
  endfacet
  facet normal 0 0 -1
    outer loop
      vertex 2 0 5
      vertex 3.3287 -1.08156 5
      vertex 1.90211 -0.618034 5
    endloop
  endfacet
  facet normal 0 0 -1
    outer loop
      vertex 1.90211 0.618034 5
      vertex 3.5 0 5
      vertex 2 0 5
    endloop
  endfacet
  facet normal 0 0 -1
    outer loop
      vertex 1.61803 1.17557 5
      vertex 3.3287 1.08156 5
      vertex 1.90211 0.618034 5
    endloop
  endfacet
  facet normal 0 0 -1
    outer loop
      vertex 1.17557 1.61803 5
      vertex 2.83156 2.05725 5
      vertex 1.61803 1.17557 5
    endloop
  endfacet
  facet normal 0 0 -1
    outer loop
      vertex 0.618034 1.90211 5
      vertex 2.83156 2.05725 5
      vertex 1.17557 1.61803 5
    endloop
  endfacet
  facet normal 0 0 -1
    outer loop
      vertex 0 2 5
      vertex 2.05725 2.83156 5
      vertex 0.618034 1.90211 5
    endloop
  endfacet
  facet normal 0 0 -1
    outer loop
      vertex -1.17557 1.61803 5
      vertex -3.3287 1.08156 5
      vertex -0.618034 1.90211 5
    endloop
  endfacet
  facet normal 0 0 -1
    outer loop
      vertex -0.618034 1.90211 5
      vertex 2.05725 2.83156 5
      vertex 0 2 5
    endloop
  endfacet
  facet normal 0 0 -1
    outer loop
      vertex -3.3287 1.08156 5
      vertex 2.05725 2.83156 5
      vertex -0.618034 1.90211 5
    endloop
  endfacet
  facet normal 0 0 -1
    outer loop
      vertex -1.61803 1.17557 5
      vertex -3.3287 1.08156 5
      vertex -1.17557 1.61803 5
    endloop
  endfacet
  facet normal 0 0 -1
    outer loop
      vertex -1.90211 0.618034 5
      vertex -3.3287 1.08156 5
      vertex -1.61803 1.17557 5
    endloop
  endfacet
  facet normal 0 0 -1
    outer loop
      vertex -2 0 5
      vertex -3.3287 1.08156 5
      vertex -1.90211 0.618034 5
    endloop
  endfacet
  facet normal 0 0 -1
    outer loop
      vertex -1.90211 -0.618034 5
      vertex -3.3287 1.08156 5
      vertex -2 0 5
    endloop
  endfacet
  facet normal 0 0 -1
    outer loop
      vertex 1.17557 -1.61803 5
      vertex 2.05725 -2.83156 5
      vertex 0.618034 -1.90211 5
    endloop
  endfacet
endsolid OpenSCAD_Model
